M48
; DRILL file {KiCad (6.0.7)} date Sun Nov 27 11:07:15 2022
; FORMAT={3:3/ absolute / metric / suppress leading zeros}
; #@! TF.CreationDate,2022-11-27T11:07:15+01:00
; #@! TF.GenerationSoftware,Kicad,Pcbnew,(6.0.7)
; #@! TF.FileFunction,MixedPlating,1,2
FMAT,2
METRIC,TZ
; #@! TA.AperFunction,Plated,PTH,ViaDrill
T1C0.400
; #@! TA.AperFunction,Plated,PTH,ComponentDrill
T2C0.800
; #@! TA.AperFunction,Plated,PTH,ComponentDrill
T3C1.000
; #@! TA.AperFunction,NonPlated,NPTH,ComponentDrill
T4C3.200
%
G90
G05
T1
X134620Y-93980
X160020Y-93980
X161290Y-87630
X161290Y-92710
X162560Y-85090
X165100Y-87630
T2
X158750Y-106680
X161250Y-106680
T3
X130810Y-81280
X130810Y-83820
X130810Y-86360
X130810Y-88900
X130810Y-91440
X130810Y-93980
X130810Y-96520
X130810Y-99060
X133360Y-113030
X135900Y-113030
X138440Y-113030
X140980Y-113030
X143520Y-113030
X146060Y-113030
X148600Y-113030
X151140Y-113030
X153670Y-81280
X153670Y-83820
X153670Y-86360
X153670Y-88900
X153670Y-91440
X153670Y-93980
X153670Y-96520
X153670Y-99060
X153680Y-113030
X156220Y-113030
X158760Y-113030
X160020Y-97790
X160020Y-100330
X161300Y-113030
X162560Y-97790
X162560Y-100330
X163840Y-113030
X165100Y-97790
X165100Y-100330
X166370Y-105410
X166370Y-107950
X166380Y-113030
X167640Y-97790
X167640Y-100330
T4
X127000Y-76200
X127000Y-111760
X172720Y-76200
X172720Y-111760
T0
M30
