%TF.GenerationSoftware,KiCad,Pcbnew,(6.0.7)*%
%TF.CreationDate,2022-11-27T11:05:52+01:00*%
%TF.ProjectId,RF24_esp8266_tft,52463234-5f65-4737-9038-3236365f7466,rev?*%
%TF.SameCoordinates,Original*%
%TF.FileFunction,Legend,Top*%
%TF.FilePolarity,Positive*%
%FSLAX46Y46*%
G04 Gerber Fmt 4.6, Leading zero omitted, Abs format (unit mm)*
G04 Created by KiCad (PCBNEW (6.0.7)) date 2022-11-27 11:05:52*
%MOMM*%
%LPD*%
G01*
G04 APERTURE LIST*
%ADD10C,0.150000*%
%ADD11C,0.120000*%
G04 APERTURE END LIST*
D10*
%TO.C,U2*%
X156472380Y-101091904D02*
X157281904Y-101091904D01*
X157377142Y-101044285D01*
X157424761Y-100996666D01*
X157472380Y-100901428D01*
X157472380Y-100710952D01*
X157424761Y-100615714D01*
X157377142Y-100568095D01*
X157281904Y-100520476D01*
X156472380Y-100520476D01*
X156567619Y-100091904D02*
X156520000Y-100044285D01*
X156472380Y-99949047D01*
X156472380Y-99710952D01*
X156520000Y-99615714D01*
X156567619Y-99568095D01*
X156662857Y-99520476D01*
X156758095Y-99520476D01*
X156900952Y-99568095D01*
X157472380Y-100139523D01*
X157472380Y-99520476D01*
%TO.C,J2*%
X130482380Y-113363333D02*
X131196666Y-113363333D01*
X131339523Y-113410952D01*
X131434761Y-113506190D01*
X131482380Y-113649047D01*
X131482380Y-113744285D01*
X130577619Y-112934761D02*
X130530000Y-112887142D01*
X130482380Y-112791904D01*
X130482380Y-112553809D01*
X130530000Y-112458571D01*
X130577619Y-112410952D01*
X130672857Y-112363333D01*
X130768095Y-112363333D01*
X130910952Y-112410952D01*
X131482380Y-112982380D01*
X131482380Y-112363333D01*
%TO.C,R3*%
X142073333Y-111102380D02*
X141740000Y-110626190D01*
X141501904Y-111102380D02*
X141501904Y-110102380D01*
X141882857Y-110102380D01*
X141978095Y-110150000D01*
X142025714Y-110197619D01*
X142073333Y-110292857D01*
X142073333Y-110435714D01*
X142025714Y-110530952D01*
X141978095Y-110578571D01*
X141882857Y-110626190D01*
X141501904Y-110626190D01*
X142406666Y-110102380D02*
X143025714Y-110102380D01*
X142692380Y-110483333D01*
X142835238Y-110483333D01*
X142930476Y-110530952D01*
X142978095Y-110578571D01*
X143025714Y-110673809D01*
X143025714Y-110911904D01*
X142978095Y-111007142D01*
X142930476Y-111054761D01*
X142835238Y-111102380D01*
X142549523Y-111102380D01*
X142454285Y-111054761D01*
X142406666Y-111007142D01*
%TO.C,R2*%
X166560833Y-93002380D02*
X166227500Y-92526190D01*
X165989404Y-93002380D02*
X165989404Y-92002380D01*
X166370357Y-92002380D01*
X166465595Y-92050000D01*
X166513214Y-92097619D01*
X166560833Y-92192857D01*
X166560833Y-92335714D01*
X166513214Y-92430952D01*
X166465595Y-92478571D01*
X166370357Y-92526190D01*
X165989404Y-92526190D01*
X166941785Y-92097619D02*
X166989404Y-92050000D01*
X167084642Y-92002380D01*
X167322738Y-92002380D01*
X167417976Y-92050000D01*
X167465595Y-92097619D01*
X167513214Y-92192857D01*
X167513214Y-92288095D01*
X167465595Y-92430952D01*
X166894166Y-93002380D01*
X167513214Y-93002380D01*
%TO.C,C1*%
X159833333Y-103287142D02*
X159785714Y-103334761D01*
X159642857Y-103382380D01*
X159547619Y-103382380D01*
X159404761Y-103334761D01*
X159309523Y-103239523D01*
X159261904Y-103144285D01*
X159214285Y-102953809D01*
X159214285Y-102810952D01*
X159261904Y-102620476D01*
X159309523Y-102525238D01*
X159404761Y-102430000D01*
X159547619Y-102382380D01*
X159642857Y-102382380D01*
X159785714Y-102430000D01*
X159833333Y-102477619D01*
X160785714Y-103382380D02*
X160214285Y-103382380D01*
X160500000Y-103382380D02*
X160500000Y-102382380D01*
X160404761Y-102525238D01*
X160309523Y-102620476D01*
X160214285Y-102668095D01*
%TO.C,R1*%
X149693333Y-94592380D02*
X149360000Y-94116190D01*
X149121904Y-94592380D02*
X149121904Y-93592380D01*
X149502857Y-93592380D01*
X149598095Y-93640000D01*
X149645714Y-93687619D01*
X149693333Y-93782857D01*
X149693333Y-93925714D01*
X149645714Y-94020952D01*
X149598095Y-94068571D01*
X149502857Y-94116190D01*
X149121904Y-94116190D01*
X150645714Y-94592380D02*
X150074285Y-94592380D01*
X150360000Y-94592380D02*
X150360000Y-93592380D01*
X150264761Y-93735238D01*
X150169523Y-93830476D01*
X150074285Y-93878095D01*
%TO.C,J1*%
X166036666Y-102532380D02*
X166036666Y-103246666D01*
X165989047Y-103389523D01*
X165893809Y-103484761D01*
X165750952Y-103532380D01*
X165655714Y-103532380D01*
X167036666Y-103532380D02*
X166465238Y-103532380D01*
X166750952Y-103532380D02*
X166750952Y-102532380D01*
X166655714Y-102675238D01*
X166560476Y-102770476D01*
X166465238Y-102818095D01*
%TO.C,U1*%
X141478095Y-88352380D02*
X141478095Y-89161904D01*
X141525714Y-89257142D01*
X141573333Y-89304761D01*
X141668571Y-89352380D01*
X141859047Y-89352380D01*
X141954285Y-89304761D01*
X142001904Y-89257142D01*
X142049523Y-89161904D01*
X142049523Y-88352380D01*
X143049523Y-89352380D02*
X142478095Y-89352380D01*
X142763809Y-89352380D02*
X142763809Y-88352380D01*
X142668571Y-88495238D01*
X142573333Y-88590476D01*
X142478095Y-88638095D01*
D11*
%TO.C,U2*%
X173370000Y-72730000D02*
X173370000Y-101930000D01*
X158496000Y-101600000D02*
X158496000Y-101600000D01*
X169164000Y-101600000D02*
X158496000Y-101600000D01*
X158496000Y-96266000D02*
X169164000Y-96266000D01*
X158496000Y-101600000D02*
X158496000Y-96266000D01*
X159004000Y-99060000D02*
X161290000Y-99060000D01*
X169164000Y-101600000D02*
X169164000Y-101600000D01*
X161290000Y-101346000D02*
X161290000Y-101346000D01*
X161290000Y-99060000D02*
X161290000Y-101346000D01*
X157920000Y-101930000D02*
X157920000Y-72730000D01*
X157920000Y-101930000D02*
X157920000Y-101930000D01*
X157920000Y-72730000D02*
X173370000Y-72730000D01*
X173370000Y-101930000D02*
X157920000Y-101930000D01*
X169164000Y-96266000D02*
X169164000Y-101600000D01*
%TO.C,J2*%
X134630000Y-114360000D02*
X134630000Y-111700000D01*
X133360000Y-114360000D02*
X132030000Y-114360000D01*
X134630000Y-114360000D02*
X167710000Y-114360000D01*
X132030000Y-114360000D02*
X132030000Y-113030000D01*
X134630000Y-111700000D02*
X167710000Y-111700000D01*
X167710000Y-114360000D02*
X167710000Y-111700000D01*
%TO.C,R3*%
X142494724Y-109742500D02*
X141985276Y-109742500D01*
X142494724Y-108697500D02*
X141985276Y-108697500D01*
%TO.C,R2*%
X166472776Y-93457500D02*
X166982224Y-93457500D01*
X166472776Y-94502500D02*
X166982224Y-94502500D01*
%TO.C,C1*%
X161881000Y-104895000D02*
X161881000Y-105640000D01*
X160040000Y-104100000D02*
X160040000Y-109260000D01*
X161441000Y-107720000D02*
X161441000Y-108829000D01*
X162441000Y-105765000D02*
X162441000Y-107595000D01*
X161601000Y-107720000D02*
X161601000Y-108715000D01*
X161281000Y-104433000D02*
X161281000Y-105640000D01*
X160520000Y-104152000D02*
X160520000Y-105640000D01*
X161961000Y-104981000D02*
X161961000Y-105640000D01*
X161241000Y-107720000D02*
X161241000Y-108948000D01*
X160761000Y-104212000D02*
X160761000Y-105640000D01*
X160721000Y-104200000D02*
X160721000Y-105640000D01*
X161121000Y-107720000D02*
X161121000Y-109009000D01*
X162161000Y-105237000D02*
X162161000Y-105640000D01*
X160680000Y-107720000D02*
X160680000Y-109171000D01*
X160480000Y-107720000D02*
X160480000Y-109216000D01*
X161241000Y-104412000D02*
X161241000Y-105640000D01*
X161401000Y-104505000D02*
X161401000Y-105640000D01*
X161321000Y-107720000D02*
X161321000Y-108904000D01*
X161801000Y-104816000D02*
X161801000Y-105640000D01*
X162401000Y-105669000D02*
X162401000Y-107691000D01*
X161521000Y-104585000D02*
X161521000Y-105640000D01*
X160280000Y-104115000D02*
X160280000Y-105640000D01*
X161481000Y-104558000D02*
X161481000Y-105640000D01*
X162041000Y-105075000D02*
X162041000Y-105640000D01*
X161361000Y-104480000D02*
X161361000Y-105640000D01*
X161641000Y-107720000D02*
X161641000Y-108684000D01*
X160761000Y-107720000D02*
X160761000Y-109148000D01*
X161681000Y-107720000D02*
X161681000Y-108651000D01*
X161721000Y-104743000D02*
X161721000Y-105640000D01*
X160400000Y-107720000D02*
X160400000Y-109230000D01*
X160080000Y-104101000D02*
X160080000Y-109259000D01*
X160600000Y-104169000D02*
X160600000Y-105640000D01*
X161681000Y-104709000D02*
X161681000Y-105640000D01*
X160841000Y-104238000D02*
X160841000Y-105640000D01*
X161281000Y-107720000D02*
X161281000Y-108927000D01*
X161561000Y-107720000D02*
X161561000Y-108745000D01*
X160480000Y-104144000D02*
X160480000Y-105640000D01*
X161921000Y-104937000D02*
X161921000Y-105640000D01*
X162001000Y-107720000D02*
X162001000Y-108333000D01*
X160961000Y-104282000D02*
X160961000Y-105640000D01*
X162041000Y-107720000D02*
X162041000Y-108285000D01*
X160640000Y-104179000D02*
X160640000Y-105640000D01*
X160640000Y-107720000D02*
X160640000Y-109181000D01*
X162241000Y-107720000D02*
X162241000Y-107999000D01*
X162081000Y-107720000D02*
X162081000Y-108234000D01*
X160801000Y-104225000D02*
X160801000Y-105640000D01*
X157195225Y-105205000D02*
X157695225Y-105205000D01*
X162121000Y-105180000D02*
X162121000Y-105640000D01*
X161361000Y-107720000D02*
X161361000Y-108880000D01*
X162121000Y-107720000D02*
X162121000Y-108180000D01*
X162161000Y-107720000D02*
X162161000Y-108123000D01*
X162201000Y-107720000D02*
X162201000Y-108063000D01*
X161761000Y-104779000D02*
X161761000Y-105640000D01*
X162561000Y-106162000D02*
X162561000Y-107198000D01*
X161561000Y-104615000D02*
X161561000Y-105640000D01*
X161601000Y-104645000D02*
X161601000Y-105640000D01*
X160440000Y-104137000D02*
X160440000Y-105640000D01*
X162521000Y-106003000D02*
X162521000Y-107357000D01*
X160200000Y-104107000D02*
X160200000Y-109253000D01*
X160881000Y-104252000D02*
X160881000Y-105640000D01*
X161641000Y-104676000D02*
X161641000Y-105640000D01*
X160721000Y-107720000D02*
X160721000Y-109160000D01*
X162081000Y-105126000D02*
X162081000Y-105640000D01*
X160240000Y-107720000D02*
X160240000Y-109249000D01*
X160921000Y-107720000D02*
X160921000Y-109094000D01*
X162481000Y-105875000D02*
X162481000Y-107485000D01*
X160560000Y-104160000D02*
X160560000Y-105640000D01*
X160560000Y-107720000D02*
X160560000Y-109200000D01*
X162001000Y-105027000D02*
X162001000Y-105640000D01*
X160360000Y-107720000D02*
X160360000Y-109236000D01*
X161921000Y-107720000D02*
X161921000Y-108423000D01*
X160680000Y-104189000D02*
X160680000Y-105640000D01*
X160400000Y-104130000D02*
X160400000Y-105640000D01*
X161761000Y-107720000D02*
X161761000Y-108581000D01*
X161001000Y-104298000D02*
X161001000Y-105640000D01*
X160600000Y-107720000D02*
X160600000Y-109191000D01*
X160520000Y-107720000D02*
X160520000Y-109208000D01*
X160240000Y-104111000D02*
X160240000Y-105640000D01*
X162601000Y-106396000D02*
X162601000Y-106964000D01*
X161401000Y-107720000D02*
X161401000Y-108855000D01*
X160841000Y-107720000D02*
X160841000Y-109122000D01*
X161321000Y-104456000D02*
X161321000Y-105640000D01*
X160280000Y-107720000D02*
X160280000Y-109245000D01*
X160921000Y-104266000D02*
X160921000Y-105640000D01*
X161081000Y-107720000D02*
X161081000Y-109028000D01*
X162321000Y-105502000D02*
X162321000Y-107858000D01*
X160160000Y-104104000D02*
X160160000Y-109256000D01*
X160360000Y-104124000D02*
X160360000Y-105640000D01*
X161041000Y-107720000D02*
X161041000Y-109045000D01*
X160440000Y-107720000D02*
X160440000Y-109223000D01*
X162241000Y-105361000D02*
X162241000Y-105640000D01*
X161001000Y-107720000D02*
X161001000Y-109062000D01*
X160120000Y-104102000D02*
X160120000Y-109258000D01*
X160000000Y-104100000D02*
X160000000Y-109260000D01*
X162281000Y-107720000D02*
X162281000Y-107931000D01*
X157445225Y-104955000D02*
X157445225Y-105455000D01*
X161161000Y-107720000D02*
X161161000Y-108990000D01*
X161841000Y-107720000D02*
X161841000Y-108506000D01*
X160320000Y-104119000D02*
X160320000Y-105640000D01*
X161201000Y-107720000D02*
X161201000Y-108970000D01*
X160320000Y-107720000D02*
X160320000Y-109241000D01*
X162281000Y-105429000D02*
X162281000Y-105640000D01*
X161201000Y-104390000D02*
X161201000Y-105640000D01*
X161161000Y-104370000D02*
X161161000Y-105640000D01*
X160801000Y-107720000D02*
X160801000Y-109135000D01*
X161441000Y-104531000D02*
X161441000Y-105640000D01*
X160881000Y-107720000D02*
X160881000Y-109108000D01*
X161721000Y-107720000D02*
X161721000Y-108617000D01*
X161081000Y-104332000D02*
X161081000Y-105640000D01*
X160961000Y-107720000D02*
X160961000Y-109078000D01*
X162361000Y-105582000D02*
X162361000Y-107778000D01*
X161881000Y-107720000D02*
X161881000Y-108465000D01*
X161961000Y-107720000D02*
X161961000Y-108379000D01*
X161521000Y-107720000D02*
X161521000Y-108775000D01*
X161801000Y-107720000D02*
X161801000Y-108544000D01*
X162201000Y-105297000D02*
X162201000Y-105640000D01*
X161841000Y-104854000D02*
X161841000Y-105640000D01*
X161481000Y-107720000D02*
X161481000Y-108802000D01*
X161121000Y-104351000D02*
X161121000Y-105640000D01*
X161041000Y-104315000D02*
X161041000Y-105640000D01*
X162620000Y-106680000D02*
G75*
G03*
X162620000Y-106680000I-2620000J0D01*
G01*
%TO.C,R1*%
X150114724Y-92187500D02*
X149605276Y-92187500D01*
X150114724Y-93232500D02*
X149605276Y-93232500D01*
%TO.C,J1*%
X165040000Y-104080000D02*
X166370000Y-104080000D01*
X167700000Y-106680000D02*
X167700000Y-109280000D01*
X165040000Y-105410000D02*
X165040000Y-104080000D01*
X165040000Y-109280000D02*
X167700000Y-109280000D01*
X165040000Y-106680000D02*
X167700000Y-106680000D01*
X165040000Y-106680000D02*
X165040000Y-109280000D01*
%TO.C,U1*%
X129310000Y-72940000D02*
X129310000Y-105270000D01*
X155170000Y-79840000D02*
X152630000Y-79840000D01*
X131430000Y-107400000D02*
X153040000Y-107400000D01*
X155170000Y-79840000D02*
X155170000Y-105270000D01*
X152630000Y-72940000D02*
X129310000Y-72940000D01*
X152630000Y-79840000D02*
X152630000Y-72940000D01*
X129310000Y-105270000D02*
G75*
G03*
X131440000Y-107400000I2130000J0D01*
G01*
X153040000Y-107400000D02*
G75*
G03*
X155170000Y-105270000I-2J2130002D01*
G01*
G36*
X156210000Y-99695000D02*
G01*
X155575000Y-99060000D01*
X156210000Y-98425000D01*
X156210000Y-99695000D01*
G37*
D10*
X156210000Y-99695000D02*
X155575000Y-99060000D01*
X156210000Y-98425000D01*
X156210000Y-99695000D01*
%TD*%
M02*
