%TF.GenerationSoftware,KiCad,Pcbnew,(6.0.7)*%
%TF.CreationDate,2022-11-27T11:05:52+01:00*%
%TF.ProjectId,RF24_esp8266_tft,52463234-5f65-4737-9038-3236365f7466,rev?*%
%TF.SameCoordinates,Original*%
%TF.FileFunction,Copper,L2,Bot*%
%TF.FilePolarity,Positive*%
%FSLAX46Y46*%
G04 Gerber Fmt 4.6, Leading zero omitted, Abs format (unit mm)*
G04 Created by KiCad (PCBNEW (6.0.7)) date 2022-11-27 11:05:52*
%MOMM*%
%LPD*%
G01*
G04 APERTURE LIST*
%TA.AperFunction,ComponentPad*%
%ADD10C,1.700000*%
%TD*%
%TA.AperFunction,ComponentPad*%
%ADD11R,1.700000X1.700000*%
%TD*%
%TA.AperFunction,ComponentPad*%
%ADD12O,1.700000X1.700000*%
%TD*%
%TA.AperFunction,ComponentPad*%
%ADD13R,1.600000X1.600000*%
%TD*%
%TA.AperFunction,ComponentPad*%
%ADD14C,1.600000*%
%TD*%
%TA.AperFunction,ComponentPad*%
%ADD15R,2.000000X2.000000*%
%TD*%
%TA.AperFunction,ComponentPad*%
%ADD16O,2.000000X1.600000*%
%TD*%
%TA.AperFunction,ViaPad*%
%ADD17C,0.800000*%
%TD*%
%TA.AperFunction,Conductor*%
%ADD18C,0.500000*%
%TD*%
%TA.AperFunction,Conductor*%
%ADD19C,0.250000*%
%TD*%
G04 APERTURE END LIST*
D10*
%TO.P,U2,8,IRQ*%
%TO.N,Net-(R2-Pad2)*%
X167640000Y-97790000D03*
%TO.P,U2,7,MISO*%
%TO.N,Net-(J2-Pad9)*%
X167640000Y-100330000D03*
%TO.P,U2,6,MOSI*%
%TO.N,Net-(J2-Pad6)*%
X165100000Y-97790000D03*
%TO.P,U2,5,SCK*%
%TO.N,Net-(J2-Pad7)*%
X165100000Y-100330000D03*
%TO.P,U2,4,~{CSN}*%
%TO.N,Net-(U1-Pad7)*%
X162560000Y-97790000D03*
%TO.P,U2,3,CE*%
%TO.N,Net-(U1-Pad11)*%
X162560000Y-100330000D03*
%TO.P,U2,2,VCC*%
%TO.N,+3.3V*%
X160020000Y-97790000D03*
D11*
%TO.P,U2,1,GND*%
%TO.N,GND*%
X160020000Y-100330000D03*
%TD*%
%TO.P,J2,1,Pin_1*%
%TO.N,+5V*%
X133360000Y-113030000D03*
D12*
%TO.P,J2,2,Pin_2*%
%TO.N,GND*%
X135900000Y-113030000D03*
%TO.P,J2,3,Pin_3*%
%TO.N,Net-(J2-Pad3)*%
X138440000Y-113030000D03*
%TO.P,J2,4,Pin_4*%
%TO.N,Net-(J2-Pad4)*%
X140980000Y-113030000D03*
%TO.P,J2,5,Pin_5*%
%TO.N,Net-(J2-Pad5)*%
X143520000Y-113030000D03*
%TO.P,J2,6,Pin_6*%
%TO.N,Net-(J2-Pad6)*%
X146060000Y-113030000D03*
%TO.P,J2,7,Pin_7*%
%TO.N,Net-(J2-Pad7)*%
X148600000Y-113030000D03*
%TO.P,J2,8,Pin_8*%
%TO.N,Net-(J2-Pad8)*%
X151140000Y-113030000D03*
%TO.P,J2,9,Pin_9*%
%TO.N,Net-(J2-Pad9)*%
X153680000Y-113030000D03*
%TO.P,J2,10,Pin_10*%
%TO.N,unconnected-(J2-Pad10)*%
X156220000Y-113030000D03*
%TO.P,J2,11,Pin_11*%
%TO.N,unconnected-(J2-Pad11)*%
X158760000Y-113030000D03*
%TO.P,J2,12,Pin_12*%
%TO.N,unconnected-(J2-Pad12)*%
X161300000Y-113030000D03*
%TO.P,J2,13,Pin_13*%
%TO.N,unconnected-(J2-Pad13)*%
X163840000Y-113030000D03*
%TO.P,J2,14,Pin_14*%
%TO.N,unconnected-(J2-Pad14)*%
X166380000Y-113030000D03*
%TD*%
D13*
%TO.P,C1,1*%
%TO.N,+3.3V*%
X158750000Y-106680000D03*
D14*
%TO.P,C1,2*%
%TO.N,GND*%
X161250000Y-106680000D03*
%TD*%
D11*
%TO.P,J1,1,Pin_1*%
%TO.N,Net-(J1-Pad1)*%
X166370000Y-105410000D03*
D12*
%TO.P,J1,2,Pin_2*%
%TO.N,GND*%
X166370000Y-107950000D03*
%TD*%
D15*
%TO.P,U1,1,~{RST}*%
%TO.N,unconnected-(U1-Pad1)*%
X153670000Y-99060000D03*
D16*
%TO.P,U1,2,A0*%
%TO.N,unconnected-(U1-Pad2)*%
X153670000Y-96520000D03*
%TO.P,U1,3,D0*%
%TO.N,Net-(J2-Pad3)*%
X153670000Y-93980000D03*
%TO.P,U1,4,SCK/D5*%
%TO.N,Net-(J2-Pad7)*%
X153670000Y-91440000D03*
%TO.P,U1,5,MISO/D6*%
%TO.N,Net-(J2-Pad9)*%
X153670000Y-88900000D03*
%TO.P,U1,6,MOSI/D7*%
%TO.N,Net-(J2-Pad6)*%
X153670000Y-86360000D03*
%TO.P,U1,7,CS/D8*%
%TO.N,Net-(U1-Pad7)*%
X153670000Y-83820000D03*
%TO.P,U1,8,3V3*%
%TO.N,+3.3V*%
X153670000Y-81280000D03*
%TO.P,U1,9,5V*%
%TO.N,+5V*%
X130810000Y-81280000D03*
%TO.P,U1,10,GND*%
%TO.N,GND*%
X130810000Y-83820000D03*
%TO.P,U1,11,D4*%
%TO.N,Net-(U1-Pad11)*%
X130810000Y-86360000D03*
%TO.P,U1,12,D3*%
%TO.N,Net-(J1-Pad1)*%
X130810000Y-88900000D03*
%TO.P,U1,13,SDA/D2*%
%TO.N,Net-(J2-Pad5)*%
X130810000Y-91440000D03*
%TO.P,U1,14,SCL/D1*%
%TO.N,Net-(J2-Pad8)*%
X130810000Y-93980000D03*
%TO.P,U1,15,RX*%
%TO.N,unconnected-(U1-Pad15)*%
X130810000Y-96520000D03*
%TO.P,U1,16,TX*%
%TO.N,unconnected-(U1-Pad16)*%
X130810000Y-99060000D03*
%TD*%
D17*
%TO.N,+3.3V*%
X160020000Y-93980000D03*
%TO.N,Net-(U1-Pad7)*%
X162560000Y-85090000D03*
%TO.N,Net-(U1-Pad11)*%
X161290000Y-92710000D03*
X161290000Y-87630000D03*
%TO.N,Net-(J2-Pad5)*%
X134620000Y-93980000D03*
%TO.N,Net-(J2-Pad6)*%
X165100000Y-87630000D03*
%TD*%
D18*
%TO.N,+3.3V*%
X160020000Y-82550000D02*
X160020000Y-93980000D01*
X158750000Y-81280000D02*
X160020000Y-82550000D01*
X153670000Y-81280000D02*
X158750000Y-81280000D01*
D19*
%TO.N,Net-(J2-Pad6)*%
X165100000Y-87630000D02*
X165100000Y-97790000D01*
X166370000Y-102870000D02*
X166370000Y-99060000D01*
X166370000Y-99060000D02*
X165100000Y-97790000D01*
X165100000Y-104140000D02*
X166370000Y-102870000D01*
X165100000Y-106489022D02*
X165100000Y-104140000D01*
D18*
%TO.N,+3.3V*%
X160020000Y-93980000D02*
X160020000Y-97790000D01*
D19*
%TO.N,+5V*%
X133360000Y-83830000D02*
X130810000Y-81280000D01*
X133360000Y-113030000D02*
X133360000Y-83830000D01*
%TO.N,Net-(U1-Pad7)*%
X162560000Y-85090000D02*
X162560000Y-97790000D01*
%TO.N,Net-(U1-Pad11)*%
X161290000Y-87630000D02*
X161290000Y-92710000D01*
%TO.N,Net-(J2-Pad5)*%
X134620000Y-113411010D02*
X134620000Y-93980000D01*
X135508990Y-114300000D02*
X134620000Y-113411010D01*
X142250000Y-114300000D02*
X135508990Y-114300000D01*
X143520000Y-113030000D02*
X142250000Y-114300000D01*
%TO.N,Net-(J2-Pad6)*%
X167640000Y-108828990D02*
X167640000Y-107558990D01*
X166856499Y-106775489D02*
X165386467Y-106775489D01*
X148600000Y-110490000D02*
X165978990Y-110490000D01*
X165386467Y-106775489D02*
X165100000Y-106489022D01*
X167640000Y-107558990D02*
X166856499Y-106775489D01*
X146060000Y-113030000D02*
X148600000Y-110490000D01*
X165978990Y-110490000D02*
X167640000Y-108828990D01*
%TD*%
%TA.AperFunction,Conductor*%
%TO.N,GND*%
G36*
X175963621Y-72918502D02*
G01*
X176010114Y-72972158D01*
X176021500Y-73024500D01*
X176021500Y-114935500D01*
X176001498Y-115003621D01*
X175947842Y-115050114D01*
X175895500Y-115061500D01*
X142667449Y-115061500D01*
X142599328Y-115041498D01*
X142552835Y-114987842D01*
X142542731Y-114917568D01*
X142572225Y-114852988D01*
X142603309Y-114827047D01*
X142634534Y-114808580D01*
X142641362Y-114804542D01*
X142655683Y-114790221D01*
X142670717Y-114777380D01*
X142672431Y-114776135D01*
X142687107Y-114765472D01*
X142715298Y-114731395D01*
X142723288Y-114722616D01*
X143064549Y-114381355D01*
X143126861Y-114347329D01*
X143178762Y-114346979D01*
X143358597Y-114383567D01*
X143363772Y-114383757D01*
X143363774Y-114383757D01*
X143576673Y-114391564D01*
X143576677Y-114391564D01*
X143581837Y-114391753D01*
X143586957Y-114391097D01*
X143586959Y-114391097D01*
X143798288Y-114364025D01*
X143798289Y-114364025D01*
X143803416Y-114363368D01*
X143808366Y-114361883D01*
X144012429Y-114300661D01*
X144012434Y-114300659D01*
X144017384Y-114299174D01*
X144217994Y-114200896D01*
X144399860Y-114071173D01*
X144558096Y-113913489D01*
X144590563Y-113868307D01*
X144688453Y-113732077D01*
X144689776Y-113733028D01*
X144736645Y-113689857D01*
X144806580Y-113677625D01*
X144872026Y-113705144D01*
X144899875Y-113736994D01*
X144959987Y-113835088D01*
X145106250Y-114003938D01*
X145278126Y-114146632D01*
X145471000Y-114259338D01*
X145679692Y-114339030D01*
X145684760Y-114340061D01*
X145684763Y-114340062D01*
X145792017Y-114361883D01*
X145898597Y-114383567D01*
X145903772Y-114383757D01*
X145903774Y-114383757D01*
X146116673Y-114391564D01*
X146116677Y-114391564D01*
X146121837Y-114391753D01*
X146126957Y-114391097D01*
X146126959Y-114391097D01*
X146338288Y-114364025D01*
X146338289Y-114364025D01*
X146343416Y-114363368D01*
X146348366Y-114361883D01*
X146552429Y-114300661D01*
X146552434Y-114300659D01*
X146557384Y-114299174D01*
X146757994Y-114200896D01*
X146939860Y-114071173D01*
X147098096Y-113913489D01*
X147130563Y-113868307D01*
X147228453Y-113732077D01*
X147229776Y-113733028D01*
X147276645Y-113689857D01*
X147346580Y-113677625D01*
X147412026Y-113705144D01*
X147439875Y-113736994D01*
X147499987Y-113835088D01*
X147646250Y-114003938D01*
X147818126Y-114146632D01*
X148011000Y-114259338D01*
X148219692Y-114339030D01*
X148224760Y-114340061D01*
X148224763Y-114340062D01*
X148332017Y-114361883D01*
X148438597Y-114383567D01*
X148443772Y-114383757D01*
X148443774Y-114383757D01*
X148656673Y-114391564D01*
X148656677Y-114391564D01*
X148661837Y-114391753D01*
X148666957Y-114391097D01*
X148666959Y-114391097D01*
X148878288Y-114364025D01*
X148878289Y-114364025D01*
X148883416Y-114363368D01*
X148888366Y-114361883D01*
X149092429Y-114300661D01*
X149092434Y-114300659D01*
X149097384Y-114299174D01*
X149297994Y-114200896D01*
X149479860Y-114071173D01*
X149638096Y-113913489D01*
X149670563Y-113868307D01*
X149768453Y-113732077D01*
X149769776Y-113733028D01*
X149816645Y-113689857D01*
X149886580Y-113677625D01*
X149952026Y-113705144D01*
X149979875Y-113736994D01*
X150039987Y-113835088D01*
X150186250Y-114003938D01*
X150358126Y-114146632D01*
X150551000Y-114259338D01*
X150759692Y-114339030D01*
X150764760Y-114340061D01*
X150764763Y-114340062D01*
X150872017Y-114361883D01*
X150978597Y-114383567D01*
X150983772Y-114383757D01*
X150983774Y-114383757D01*
X151196673Y-114391564D01*
X151196677Y-114391564D01*
X151201837Y-114391753D01*
X151206957Y-114391097D01*
X151206959Y-114391097D01*
X151418288Y-114364025D01*
X151418289Y-114364025D01*
X151423416Y-114363368D01*
X151428366Y-114361883D01*
X151632429Y-114300661D01*
X151632434Y-114300659D01*
X151637384Y-114299174D01*
X151837994Y-114200896D01*
X152019860Y-114071173D01*
X152178096Y-113913489D01*
X152210563Y-113868307D01*
X152308453Y-113732077D01*
X152309776Y-113733028D01*
X152356645Y-113689857D01*
X152426580Y-113677625D01*
X152492026Y-113705144D01*
X152519875Y-113736994D01*
X152579987Y-113835088D01*
X152726250Y-114003938D01*
X152898126Y-114146632D01*
X153091000Y-114259338D01*
X153299692Y-114339030D01*
X153304760Y-114340061D01*
X153304763Y-114340062D01*
X153412017Y-114361883D01*
X153518597Y-114383567D01*
X153523772Y-114383757D01*
X153523774Y-114383757D01*
X153736673Y-114391564D01*
X153736677Y-114391564D01*
X153741837Y-114391753D01*
X153746957Y-114391097D01*
X153746959Y-114391097D01*
X153958288Y-114364025D01*
X153958289Y-114364025D01*
X153963416Y-114363368D01*
X153968366Y-114361883D01*
X154172429Y-114300661D01*
X154172434Y-114300659D01*
X154177384Y-114299174D01*
X154377994Y-114200896D01*
X154559860Y-114071173D01*
X154718096Y-113913489D01*
X154750563Y-113868307D01*
X154848453Y-113732077D01*
X154849776Y-113733028D01*
X154896645Y-113689857D01*
X154966580Y-113677625D01*
X155032026Y-113705144D01*
X155059875Y-113736994D01*
X155119987Y-113835088D01*
X155266250Y-114003938D01*
X155438126Y-114146632D01*
X155631000Y-114259338D01*
X155839692Y-114339030D01*
X155844760Y-114340061D01*
X155844763Y-114340062D01*
X155952017Y-114361883D01*
X156058597Y-114383567D01*
X156063772Y-114383757D01*
X156063774Y-114383757D01*
X156276673Y-114391564D01*
X156276677Y-114391564D01*
X156281837Y-114391753D01*
X156286957Y-114391097D01*
X156286959Y-114391097D01*
X156498288Y-114364025D01*
X156498289Y-114364025D01*
X156503416Y-114363368D01*
X156508366Y-114361883D01*
X156712429Y-114300661D01*
X156712434Y-114300659D01*
X156717384Y-114299174D01*
X156917994Y-114200896D01*
X157099860Y-114071173D01*
X157258096Y-113913489D01*
X157290563Y-113868307D01*
X157388453Y-113732077D01*
X157389776Y-113733028D01*
X157436645Y-113689857D01*
X157506580Y-113677625D01*
X157572026Y-113705144D01*
X157599875Y-113736994D01*
X157659987Y-113835088D01*
X157806250Y-114003938D01*
X157978126Y-114146632D01*
X158171000Y-114259338D01*
X158379692Y-114339030D01*
X158384760Y-114340061D01*
X158384763Y-114340062D01*
X158492017Y-114361883D01*
X158598597Y-114383567D01*
X158603772Y-114383757D01*
X158603774Y-114383757D01*
X158816673Y-114391564D01*
X158816677Y-114391564D01*
X158821837Y-114391753D01*
X158826957Y-114391097D01*
X158826959Y-114391097D01*
X159038288Y-114364025D01*
X159038289Y-114364025D01*
X159043416Y-114363368D01*
X159048366Y-114361883D01*
X159252429Y-114300661D01*
X159252434Y-114300659D01*
X159257384Y-114299174D01*
X159457994Y-114200896D01*
X159639860Y-114071173D01*
X159798096Y-113913489D01*
X159830563Y-113868307D01*
X159928453Y-113732077D01*
X159929776Y-113733028D01*
X159976645Y-113689857D01*
X160046580Y-113677625D01*
X160112026Y-113705144D01*
X160139875Y-113736994D01*
X160199987Y-113835088D01*
X160346250Y-114003938D01*
X160518126Y-114146632D01*
X160711000Y-114259338D01*
X160919692Y-114339030D01*
X160924760Y-114340061D01*
X160924763Y-114340062D01*
X161032017Y-114361883D01*
X161138597Y-114383567D01*
X161143772Y-114383757D01*
X161143774Y-114383757D01*
X161356673Y-114391564D01*
X161356677Y-114391564D01*
X161361837Y-114391753D01*
X161366957Y-114391097D01*
X161366959Y-114391097D01*
X161578288Y-114364025D01*
X161578289Y-114364025D01*
X161583416Y-114363368D01*
X161588366Y-114361883D01*
X161792429Y-114300661D01*
X161792434Y-114300659D01*
X161797384Y-114299174D01*
X161997994Y-114200896D01*
X162179860Y-114071173D01*
X162338096Y-113913489D01*
X162370563Y-113868307D01*
X162468453Y-113732077D01*
X162469776Y-113733028D01*
X162516645Y-113689857D01*
X162586580Y-113677625D01*
X162652026Y-113705144D01*
X162679875Y-113736994D01*
X162739987Y-113835088D01*
X162886250Y-114003938D01*
X163058126Y-114146632D01*
X163251000Y-114259338D01*
X163459692Y-114339030D01*
X163464760Y-114340061D01*
X163464763Y-114340062D01*
X163572017Y-114361883D01*
X163678597Y-114383567D01*
X163683772Y-114383757D01*
X163683774Y-114383757D01*
X163896673Y-114391564D01*
X163896677Y-114391564D01*
X163901837Y-114391753D01*
X163906957Y-114391097D01*
X163906959Y-114391097D01*
X164118288Y-114364025D01*
X164118289Y-114364025D01*
X164123416Y-114363368D01*
X164128366Y-114361883D01*
X164332429Y-114300661D01*
X164332434Y-114300659D01*
X164337384Y-114299174D01*
X164537994Y-114200896D01*
X164719860Y-114071173D01*
X164878096Y-113913489D01*
X164910563Y-113868307D01*
X165008453Y-113732077D01*
X165009776Y-113733028D01*
X165056645Y-113689857D01*
X165126580Y-113677625D01*
X165192026Y-113705144D01*
X165219875Y-113736994D01*
X165279987Y-113835088D01*
X165426250Y-114003938D01*
X165598126Y-114146632D01*
X165791000Y-114259338D01*
X165999692Y-114339030D01*
X166004760Y-114340061D01*
X166004763Y-114340062D01*
X166112017Y-114361883D01*
X166218597Y-114383567D01*
X166223772Y-114383757D01*
X166223774Y-114383757D01*
X166436673Y-114391564D01*
X166436677Y-114391564D01*
X166441837Y-114391753D01*
X166446957Y-114391097D01*
X166446959Y-114391097D01*
X166658288Y-114364025D01*
X166658289Y-114364025D01*
X166663416Y-114363368D01*
X166668366Y-114361883D01*
X166872429Y-114300661D01*
X166872434Y-114300659D01*
X166877384Y-114299174D01*
X167077994Y-114200896D01*
X167259860Y-114071173D01*
X167418096Y-113913489D01*
X167548453Y-113732077D01*
X167563794Y-113701038D01*
X167645136Y-113536453D01*
X167645137Y-113536451D01*
X167647430Y-113531811D01*
X167712370Y-113318069D01*
X167741529Y-113096590D01*
X167743156Y-113030000D01*
X167724852Y-112807361D01*
X167670431Y-112590702D01*
X167581354Y-112385840D01*
X167460014Y-112198277D01*
X167309670Y-112033051D01*
X167305619Y-112029852D01*
X167305615Y-112029848D01*
X167138414Y-111897800D01*
X167138410Y-111897798D01*
X167134359Y-111894598D01*
X167130926Y-111892703D01*
X170610743Y-111892703D01*
X170611302Y-111896947D01*
X170611302Y-111896951D01*
X170613084Y-111910488D01*
X170648268Y-112177734D01*
X170724129Y-112455036D01*
X170836923Y-112719476D01*
X170984561Y-112966161D01*
X171164313Y-113190528D01*
X171372851Y-113388423D01*
X171606317Y-113556186D01*
X171610112Y-113558195D01*
X171610113Y-113558196D01*
X171631869Y-113569715D01*
X171860392Y-113690712D01*
X172130373Y-113789511D01*
X172411264Y-113850755D01*
X172439841Y-113853004D01*
X172634282Y-113868307D01*
X172634291Y-113868307D01*
X172636739Y-113868500D01*
X172792271Y-113868500D01*
X172794407Y-113868354D01*
X172794418Y-113868354D01*
X173002548Y-113854165D01*
X173002554Y-113854164D01*
X173006825Y-113853873D01*
X173011020Y-113853004D01*
X173011022Y-113853004D01*
X173147583Y-113824724D01*
X173288342Y-113795574D01*
X173559343Y-113699607D01*
X173814812Y-113567750D01*
X173818313Y-113565289D01*
X173818317Y-113565287D01*
X173999941Y-113437639D01*
X174050023Y-113402441D01*
X174140818Y-113318069D01*
X174257479Y-113209661D01*
X174257481Y-113209658D01*
X174260622Y-113206740D01*
X174442713Y-112984268D01*
X174592927Y-112739142D01*
X174708483Y-112475898D01*
X174787244Y-112199406D01*
X174827751Y-111914784D01*
X174827845Y-111896951D01*
X174829235Y-111631583D01*
X174829235Y-111631576D01*
X174829257Y-111627297D01*
X174791732Y-111342266D01*
X174715871Y-111064964D01*
X174603077Y-110800524D01*
X174455439Y-110553839D01*
X174275687Y-110329472D01*
X174067149Y-110131577D01*
X173833683Y-109963814D01*
X173811843Y-109952250D01*
X173765156Y-109927531D01*
X173579608Y-109829288D01*
X173309627Y-109730489D01*
X173028736Y-109669245D01*
X172997685Y-109666801D01*
X172805718Y-109651693D01*
X172805709Y-109651693D01*
X172803261Y-109651500D01*
X172647729Y-109651500D01*
X172645593Y-109651646D01*
X172645582Y-109651646D01*
X172437452Y-109665835D01*
X172437446Y-109665836D01*
X172433175Y-109666127D01*
X172428980Y-109666996D01*
X172428978Y-109666996D01*
X172292417Y-109695276D01*
X172151658Y-109724426D01*
X171880657Y-109820393D01*
X171876848Y-109822359D01*
X171698729Y-109914293D01*
X171625188Y-109952250D01*
X171621687Y-109954711D01*
X171621683Y-109954713D01*
X171569961Y-109991064D01*
X171389977Y-110117559D01*
X171179378Y-110313260D01*
X170997287Y-110535732D01*
X170847073Y-110780858D01*
X170731517Y-111044102D01*
X170730342Y-111048229D01*
X170730341Y-111048230D01*
X170708273Y-111125702D01*
X170652756Y-111320594D01*
X170612249Y-111605216D01*
X170612227Y-111609505D01*
X170612226Y-111609512D01*
X170610765Y-111888417D01*
X170610743Y-111892703D01*
X167130926Y-111892703D01*
X166938789Y-111786638D01*
X166933920Y-111784914D01*
X166933916Y-111784912D01*
X166733087Y-111713795D01*
X166733083Y-111713794D01*
X166728212Y-111712069D01*
X166723119Y-111711162D01*
X166723116Y-111711161D01*
X166513373Y-111673800D01*
X166513367Y-111673799D01*
X166508284Y-111672894D01*
X166434452Y-111671992D01*
X166290081Y-111670228D01*
X166290079Y-111670228D01*
X166284911Y-111670165D01*
X166064091Y-111703955D01*
X165851756Y-111773357D01*
X165653607Y-111876507D01*
X165649474Y-111879610D01*
X165649471Y-111879612D01*
X165479100Y-112007530D01*
X165474965Y-112010635D01*
X165320629Y-112172138D01*
X165213201Y-112329621D01*
X165158293Y-112374621D01*
X165087768Y-112382792D01*
X165024021Y-112351538D01*
X165003324Y-112327054D01*
X164922822Y-112202617D01*
X164922820Y-112202614D01*
X164920014Y-112198277D01*
X164769670Y-112033051D01*
X164765619Y-112029852D01*
X164765615Y-112029848D01*
X164598414Y-111897800D01*
X164598410Y-111897798D01*
X164594359Y-111894598D01*
X164398789Y-111786638D01*
X164393920Y-111784914D01*
X164393916Y-111784912D01*
X164193087Y-111713795D01*
X164193083Y-111713794D01*
X164188212Y-111712069D01*
X164183119Y-111711162D01*
X164183116Y-111711161D01*
X163973373Y-111673800D01*
X163973367Y-111673799D01*
X163968284Y-111672894D01*
X163894452Y-111671992D01*
X163750081Y-111670228D01*
X163750079Y-111670228D01*
X163744911Y-111670165D01*
X163524091Y-111703955D01*
X163311756Y-111773357D01*
X163113607Y-111876507D01*
X163109474Y-111879610D01*
X163109471Y-111879612D01*
X162939100Y-112007530D01*
X162934965Y-112010635D01*
X162780629Y-112172138D01*
X162673201Y-112329621D01*
X162618293Y-112374621D01*
X162547768Y-112382792D01*
X162484021Y-112351538D01*
X162463324Y-112327054D01*
X162382822Y-112202617D01*
X162382820Y-112202614D01*
X162380014Y-112198277D01*
X162229670Y-112033051D01*
X162225619Y-112029852D01*
X162225615Y-112029848D01*
X162058414Y-111897800D01*
X162058410Y-111897798D01*
X162054359Y-111894598D01*
X161858789Y-111786638D01*
X161853920Y-111784914D01*
X161853916Y-111784912D01*
X161653087Y-111713795D01*
X161653083Y-111713794D01*
X161648212Y-111712069D01*
X161643119Y-111711162D01*
X161643116Y-111711161D01*
X161433373Y-111673800D01*
X161433367Y-111673799D01*
X161428284Y-111672894D01*
X161354452Y-111671992D01*
X161210081Y-111670228D01*
X161210079Y-111670228D01*
X161204911Y-111670165D01*
X160984091Y-111703955D01*
X160771756Y-111773357D01*
X160573607Y-111876507D01*
X160569474Y-111879610D01*
X160569471Y-111879612D01*
X160399100Y-112007530D01*
X160394965Y-112010635D01*
X160240629Y-112172138D01*
X160133201Y-112329621D01*
X160078293Y-112374621D01*
X160007768Y-112382792D01*
X159944021Y-112351538D01*
X159923324Y-112327054D01*
X159842822Y-112202617D01*
X159842820Y-112202614D01*
X159840014Y-112198277D01*
X159689670Y-112033051D01*
X159685619Y-112029852D01*
X159685615Y-112029848D01*
X159518414Y-111897800D01*
X159518410Y-111897798D01*
X159514359Y-111894598D01*
X159318789Y-111786638D01*
X159313920Y-111784914D01*
X159313916Y-111784912D01*
X159113087Y-111713795D01*
X159113083Y-111713794D01*
X159108212Y-111712069D01*
X159103119Y-111711162D01*
X159103116Y-111711161D01*
X158893373Y-111673800D01*
X158893367Y-111673799D01*
X158888284Y-111672894D01*
X158814452Y-111671992D01*
X158670081Y-111670228D01*
X158670079Y-111670228D01*
X158664911Y-111670165D01*
X158444091Y-111703955D01*
X158231756Y-111773357D01*
X158033607Y-111876507D01*
X158029474Y-111879610D01*
X158029471Y-111879612D01*
X157859100Y-112007530D01*
X157854965Y-112010635D01*
X157700629Y-112172138D01*
X157593201Y-112329621D01*
X157538293Y-112374621D01*
X157467768Y-112382792D01*
X157404021Y-112351538D01*
X157383324Y-112327054D01*
X157302822Y-112202617D01*
X157302820Y-112202614D01*
X157300014Y-112198277D01*
X157149670Y-112033051D01*
X157145619Y-112029852D01*
X157145615Y-112029848D01*
X156978414Y-111897800D01*
X156978410Y-111897798D01*
X156974359Y-111894598D01*
X156778789Y-111786638D01*
X156773920Y-111784914D01*
X156773916Y-111784912D01*
X156573087Y-111713795D01*
X156573083Y-111713794D01*
X156568212Y-111712069D01*
X156563119Y-111711162D01*
X156563116Y-111711161D01*
X156353373Y-111673800D01*
X156353367Y-111673799D01*
X156348284Y-111672894D01*
X156274452Y-111671992D01*
X156130081Y-111670228D01*
X156130079Y-111670228D01*
X156124911Y-111670165D01*
X155904091Y-111703955D01*
X155691756Y-111773357D01*
X155493607Y-111876507D01*
X155489474Y-111879610D01*
X155489471Y-111879612D01*
X155319100Y-112007530D01*
X155314965Y-112010635D01*
X155160629Y-112172138D01*
X155053201Y-112329621D01*
X154998293Y-112374621D01*
X154927768Y-112382792D01*
X154864021Y-112351538D01*
X154843324Y-112327054D01*
X154762822Y-112202617D01*
X154762820Y-112202614D01*
X154760014Y-112198277D01*
X154609670Y-112033051D01*
X154605619Y-112029852D01*
X154605615Y-112029848D01*
X154438414Y-111897800D01*
X154438410Y-111897798D01*
X154434359Y-111894598D01*
X154238789Y-111786638D01*
X154233920Y-111784914D01*
X154233916Y-111784912D01*
X154033087Y-111713795D01*
X154033083Y-111713794D01*
X154028212Y-111712069D01*
X154023119Y-111711162D01*
X154023116Y-111711161D01*
X153813373Y-111673800D01*
X153813367Y-111673799D01*
X153808284Y-111672894D01*
X153734452Y-111671992D01*
X153590081Y-111670228D01*
X153590079Y-111670228D01*
X153584911Y-111670165D01*
X153364091Y-111703955D01*
X153151756Y-111773357D01*
X152953607Y-111876507D01*
X152949474Y-111879610D01*
X152949471Y-111879612D01*
X152779100Y-112007530D01*
X152774965Y-112010635D01*
X152620629Y-112172138D01*
X152513201Y-112329621D01*
X152458293Y-112374621D01*
X152387768Y-112382792D01*
X152324021Y-112351538D01*
X152303324Y-112327054D01*
X152222822Y-112202617D01*
X152222820Y-112202614D01*
X152220014Y-112198277D01*
X152069670Y-112033051D01*
X152065619Y-112029852D01*
X152065615Y-112029848D01*
X151898414Y-111897800D01*
X151898410Y-111897798D01*
X151894359Y-111894598D01*
X151698789Y-111786638D01*
X151693920Y-111784914D01*
X151693916Y-111784912D01*
X151493087Y-111713795D01*
X151493083Y-111713794D01*
X151488212Y-111712069D01*
X151483119Y-111711162D01*
X151483116Y-111711161D01*
X151273373Y-111673800D01*
X151273367Y-111673799D01*
X151268284Y-111672894D01*
X151194452Y-111671992D01*
X151050081Y-111670228D01*
X151050079Y-111670228D01*
X151044911Y-111670165D01*
X150824091Y-111703955D01*
X150611756Y-111773357D01*
X150413607Y-111876507D01*
X150409474Y-111879610D01*
X150409471Y-111879612D01*
X150239100Y-112007530D01*
X150234965Y-112010635D01*
X150080629Y-112172138D01*
X149973201Y-112329621D01*
X149918293Y-112374621D01*
X149847768Y-112382792D01*
X149784021Y-112351538D01*
X149763324Y-112327054D01*
X149682822Y-112202617D01*
X149682820Y-112202614D01*
X149680014Y-112198277D01*
X149529670Y-112033051D01*
X149525619Y-112029852D01*
X149525615Y-112029848D01*
X149358414Y-111897800D01*
X149358410Y-111897798D01*
X149354359Y-111894598D01*
X149158789Y-111786638D01*
X149153920Y-111784914D01*
X149153916Y-111784912D01*
X148953087Y-111713795D01*
X148953083Y-111713794D01*
X148948212Y-111712069D01*
X148943119Y-111711162D01*
X148943116Y-111711161D01*
X148733373Y-111673800D01*
X148733367Y-111673799D01*
X148728284Y-111672894D01*
X148617009Y-111671535D01*
X148549140Y-111650702D01*
X148503306Y-111596483D01*
X148494061Y-111526091D01*
X148524340Y-111461875D01*
X148529455Y-111456449D01*
X148825499Y-111160405D01*
X148887811Y-111126379D01*
X148914594Y-111123500D01*
X165900223Y-111123500D01*
X165911406Y-111124027D01*
X165918899Y-111125702D01*
X165926825Y-111125453D01*
X165926826Y-111125453D01*
X165986976Y-111123562D01*
X165990935Y-111123500D01*
X166018846Y-111123500D01*
X166022781Y-111123003D01*
X166022846Y-111122995D01*
X166034683Y-111122062D01*
X166066941Y-111121048D01*
X166070960Y-111120922D01*
X166078879Y-111120673D01*
X166098333Y-111115021D01*
X166117690Y-111111013D01*
X166129920Y-111109468D01*
X166129921Y-111109468D01*
X166137787Y-111108474D01*
X166145158Y-111105555D01*
X166145160Y-111105555D01*
X166178902Y-111092196D01*
X166190132Y-111088351D01*
X166224973Y-111078229D01*
X166224974Y-111078229D01*
X166232583Y-111076018D01*
X166239402Y-111071985D01*
X166239407Y-111071983D01*
X166250018Y-111065707D01*
X166267766Y-111057012D01*
X166286607Y-111049552D01*
X166294109Y-111044102D01*
X166322377Y-111023564D01*
X166332297Y-111017048D01*
X166363525Y-110998580D01*
X166363528Y-110998578D01*
X166370352Y-110994542D01*
X166384673Y-110980221D01*
X166399707Y-110967380D01*
X166409684Y-110960131D01*
X166416097Y-110955472D01*
X166444288Y-110921395D01*
X166452278Y-110912616D01*
X168032253Y-109332642D01*
X168040539Y-109325102D01*
X168047018Y-109320990D01*
X168093644Y-109271338D01*
X168096398Y-109268497D01*
X168116135Y-109248760D01*
X168118615Y-109245563D01*
X168126320Y-109236541D01*
X168151159Y-109210090D01*
X168156586Y-109204311D01*
X168160405Y-109197365D01*
X168160407Y-109197362D01*
X168166348Y-109186556D01*
X168177199Y-109170037D01*
X168184758Y-109160291D01*
X168189614Y-109154031D01*
X168192759Y-109146762D01*
X168192762Y-109146758D01*
X168207174Y-109113453D01*
X168212391Y-109102803D01*
X168233695Y-109064050D01*
X168238733Y-109044427D01*
X168245137Y-109025724D01*
X168250033Y-109014410D01*
X168250033Y-109014409D01*
X168253181Y-109007135D01*
X168254420Y-108999312D01*
X168254423Y-108999302D01*
X168260099Y-108963466D01*
X168262505Y-108951846D01*
X168271528Y-108916701D01*
X168271528Y-108916700D01*
X168273500Y-108909020D01*
X168273500Y-108888766D01*
X168275051Y-108869055D01*
X168276980Y-108856876D01*
X168278220Y-108849047D01*
X168274059Y-108805028D01*
X168273500Y-108793171D01*
X168273500Y-107637758D01*
X168274027Y-107626575D01*
X168275702Y-107619082D01*
X168275031Y-107597715D01*
X168273562Y-107550992D01*
X168273500Y-107547034D01*
X168273500Y-107519134D01*
X168272996Y-107515143D01*
X168272063Y-107503301D01*
X168271015Y-107469934D01*
X168270674Y-107459101D01*
X168268462Y-107451487D01*
X168268461Y-107451482D01*
X168265023Y-107439649D01*
X168261012Y-107420285D01*
X168259467Y-107408054D01*
X168258474Y-107400193D01*
X168255557Y-107392826D01*
X168255556Y-107392821D01*
X168242198Y-107359082D01*
X168238354Y-107347855D01*
X168231743Y-107325103D01*
X168226018Y-107305397D01*
X168215707Y-107287962D01*
X168207012Y-107270214D01*
X168199552Y-107251373D01*
X168173564Y-107215603D01*
X168167048Y-107205683D01*
X168148580Y-107174455D01*
X168148578Y-107174452D01*
X168144542Y-107167628D01*
X168130221Y-107153307D01*
X168117380Y-107138273D01*
X168110131Y-107128296D01*
X168105472Y-107121883D01*
X168099367Y-107116832D01*
X168099362Y-107116827D01*
X168071402Y-107093696D01*
X168062624Y-107085709D01*
X167871620Y-106894705D01*
X167667752Y-106690838D01*
X167633727Y-106628525D01*
X167638791Y-106557710D01*
X167656019Y-106526180D01*
X167670615Y-106506705D01*
X167721745Y-106370316D01*
X167728500Y-106308134D01*
X167728500Y-104511866D01*
X167721745Y-104449684D01*
X167670615Y-104313295D01*
X167583261Y-104196739D01*
X167466705Y-104109385D01*
X167330316Y-104058255D01*
X167268134Y-104051500D01*
X166388594Y-104051500D01*
X166320473Y-104031498D01*
X166273980Y-103977842D01*
X166263876Y-103907568D01*
X166293370Y-103842988D01*
X166299499Y-103836405D01*
X166762247Y-103373657D01*
X166770537Y-103366113D01*
X166777018Y-103362000D01*
X166823659Y-103312332D01*
X166826413Y-103309491D01*
X166846134Y-103289770D01*
X166848612Y-103286575D01*
X166856318Y-103277553D01*
X166881158Y-103251101D01*
X166886586Y-103245321D01*
X166896346Y-103227568D01*
X166907199Y-103211045D01*
X166914753Y-103201306D01*
X166919613Y-103195041D01*
X166937176Y-103154457D01*
X166942383Y-103143827D01*
X166963695Y-103105060D01*
X166965666Y-103097383D01*
X166965668Y-103097378D01*
X166968732Y-103085442D01*
X166975138Y-103066730D01*
X166980033Y-103055419D01*
X166983181Y-103048145D01*
X166984421Y-103040317D01*
X166984423Y-103040310D01*
X166990099Y-103004476D01*
X166992505Y-102992856D01*
X167001528Y-102957711D01*
X167001528Y-102957710D01*
X167003500Y-102950030D01*
X167003500Y-102929776D01*
X167005051Y-102910065D01*
X167006980Y-102897886D01*
X167008220Y-102890057D01*
X167004059Y-102846038D01*
X167003500Y-102834181D01*
X167003500Y-101724189D01*
X167023502Y-101656068D01*
X167077158Y-101609575D01*
X167147432Y-101599471D01*
X167174449Y-101606479D01*
X167182557Y-101609575D01*
X167259692Y-101639030D01*
X167264760Y-101640061D01*
X167264763Y-101640062D01*
X167343436Y-101656068D01*
X167478597Y-101683567D01*
X167483772Y-101683757D01*
X167483774Y-101683757D01*
X167696673Y-101691564D01*
X167696677Y-101691564D01*
X167701837Y-101691753D01*
X167706957Y-101691097D01*
X167706959Y-101691097D01*
X167918288Y-101664025D01*
X167918289Y-101664025D01*
X167923416Y-101663368D01*
X167947748Y-101656068D01*
X168132429Y-101600661D01*
X168132434Y-101600659D01*
X168137384Y-101599174D01*
X168337994Y-101500896D01*
X168519860Y-101371173D01*
X168678096Y-101213489D01*
X168808453Y-101032077D01*
X168829320Y-100989857D01*
X168905136Y-100836453D01*
X168905137Y-100836451D01*
X168907430Y-100831811D01*
X168972370Y-100618069D01*
X169001529Y-100396590D01*
X169001611Y-100393240D01*
X169003074Y-100333365D01*
X169003074Y-100333361D01*
X169003156Y-100330000D01*
X168984852Y-100107361D01*
X168930431Y-99890702D01*
X168841354Y-99685840D01*
X168801906Y-99624862D01*
X168722822Y-99502617D01*
X168722820Y-99502614D01*
X168720014Y-99498277D01*
X168569670Y-99333051D01*
X168565619Y-99329852D01*
X168565615Y-99329848D01*
X168398414Y-99197800D01*
X168398410Y-99197798D01*
X168394359Y-99194598D01*
X168353053Y-99171796D01*
X168303084Y-99121364D01*
X168288312Y-99051921D01*
X168313428Y-98985516D01*
X168340780Y-98958909D01*
X168384603Y-98927650D01*
X168519860Y-98831173D01*
X168544323Y-98806796D01*
X168674435Y-98677137D01*
X168678096Y-98673489D01*
X168737594Y-98590689D01*
X168805435Y-98496277D01*
X168808453Y-98492077D01*
X168829320Y-98449857D01*
X168905136Y-98296453D01*
X168905137Y-98296451D01*
X168907430Y-98291811D01*
X168972370Y-98078069D01*
X169001529Y-97856590D01*
X169001611Y-97853240D01*
X169003074Y-97793365D01*
X169003074Y-97793361D01*
X169003156Y-97790000D01*
X168984852Y-97567361D01*
X168930431Y-97350702D01*
X168841354Y-97145840D01*
X168801906Y-97084862D01*
X168722822Y-96962617D01*
X168722820Y-96962614D01*
X168720014Y-96958277D01*
X168569670Y-96793051D01*
X168565619Y-96789852D01*
X168565615Y-96789848D01*
X168398414Y-96657800D01*
X168398410Y-96657798D01*
X168394359Y-96654598D01*
X168389831Y-96652098D01*
X168337945Y-96623456D01*
X168198789Y-96546638D01*
X168193920Y-96544914D01*
X168193916Y-96544912D01*
X167993087Y-96473795D01*
X167993083Y-96473794D01*
X167988212Y-96472069D01*
X167983119Y-96471162D01*
X167983116Y-96471161D01*
X167773373Y-96433800D01*
X167773367Y-96433799D01*
X167768284Y-96432894D01*
X167694452Y-96431992D01*
X167550081Y-96430228D01*
X167550079Y-96430228D01*
X167544911Y-96430165D01*
X167324091Y-96463955D01*
X167111756Y-96533357D01*
X167081443Y-96549137D01*
X166937975Y-96623822D01*
X166913607Y-96636507D01*
X166909474Y-96639610D01*
X166909471Y-96639612D01*
X166764996Y-96748087D01*
X166734965Y-96770635D01*
X166580629Y-96932138D01*
X166473201Y-97089621D01*
X166418293Y-97134621D01*
X166347768Y-97142792D01*
X166284021Y-97111538D01*
X166263324Y-97087054D01*
X166182822Y-96962617D01*
X166182820Y-96962614D01*
X166180014Y-96958277D01*
X166029670Y-96793051D01*
X166025619Y-96789852D01*
X166025615Y-96789848D01*
X165858414Y-96657800D01*
X165858410Y-96657798D01*
X165854359Y-96654598D01*
X165849835Y-96652101D01*
X165849831Y-96652098D01*
X165798608Y-96623822D01*
X165748636Y-96573390D01*
X165733500Y-96513513D01*
X165733500Y-88332524D01*
X165753502Y-88264403D01*
X165765858Y-88248221D01*
X165839040Y-88166944D01*
X165934527Y-88001556D01*
X165993542Y-87819928D01*
X165999249Y-87765634D01*
X166012814Y-87636565D01*
X166013504Y-87630000D01*
X165999580Y-87497523D01*
X165994232Y-87446635D01*
X165994232Y-87446633D01*
X165993542Y-87440072D01*
X165934527Y-87258444D01*
X165839040Y-87093056D01*
X165711253Y-86951134D01*
X165611500Y-86878659D01*
X165562094Y-86842763D01*
X165562093Y-86842762D01*
X165556752Y-86838882D01*
X165550724Y-86836198D01*
X165550722Y-86836197D01*
X165388319Y-86763891D01*
X165388318Y-86763891D01*
X165382288Y-86761206D01*
X165288887Y-86741353D01*
X165201944Y-86722872D01*
X165201939Y-86722872D01*
X165195487Y-86721500D01*
X165004513Y-86721500D01*
X164998061Y-86722872D01*
X164998056Y-86722872D01*
X164911113Y-86741353D01*
X164817712Y-86761206D01*
X164811682Y-86763891D01*
X164811681Y-86763891D01*
X164649278Y-86836197D01*
X164649276Y-86836198D01*
X164643248Y-86838882D01*
X164637907Y-86842762D01*
X164637906Y-86842763D01*
X164588500Y-86878659D01*
X164488747Y-86951134D01*
X164360960Y-87093056D01*
X164265473Y-87258444D01*
X164206458Y-87440072D01*
X164205768Y-87446633D01*
X164205768Y-87446635D01*
X164200420Y-87497523D01*
X164186496Y-87630000D01*
X164187186Y-87636565D01*
X164200752Y-87765634D01*
X164206458Y-87819928D01*
X164265473Y-88001556D01*
X164360960Y-88166944D01*
X164434137Y-88248215D01*
X164464853Y-88312221D01*
X164466500Y-88332524D01*
X164466500Y-96511692D01*
X164446498Y-96579813D01*
X164398683Y-96623453D01*
X164373607Y-96636507D01*
X164369474Y-96639610D01*
X164369471Y-96639612D01*
X164224996Y-96748087D01*
X164194965Y-96770635D01*
X164040629Y-96932138D01*
X163933201Y-97089621D01*
X163878293Y-97134621D01*
X163807768Y-97142792D01*
X163744021Y-97111538D01*
X163723324Y-97087054D01*
X163642822Y-96962617D01*
X163642820Y-96962614D01*
X163640014Y-96958277D01*
X163489670Y-96793051D01*
X163485619Y-96789852D01*
X163485615Y-96789848D01*
X163318414Y-96657800D01*
X163318410Y-96657798D01*
X163314359Y-96654598D01*
X163309835Y-96652101D01*
X163309831Y-96652098D01*
X163258608Y-96623822D01*
X163208636Y-96573390D01*
X163193500Y-96513513D01*
X163193500Y-85792524D01*
X163213502Y-85724403D01*
X163225858Y-85708221D01*
X163299040Y-85626944D01*
X163394527Y-85461556D01*
X163453542Y-85279928D01*
X163459249Y-85225634D01*
X163472814Y-85096565D01*
X163473504Y-85090000D01*
X163459580Y-84957523D01*
X163454232Y-84906635D01*
X163454232Y-84906633D01*
X163453542Y-84900072D01*
X163394527Y-84718444D01*
X163299040Y-84553056D01*
X163171253Y-84411134D01*
X163016752Y-84298882D01*
X163010724Y-84296198D01*
X163010722Y-84296197D01*
X162848319Y-84223891D01*
X162848318Y-84223891D01*
X162842288Y-84221206D01*
X162748888Y-84201353D01*
X162661944Y-84182872D01*
X162661939Y-84182872D01*
X162655487Y-84181500D01*
X162464513Y-84181500D01*
X162458061Y-84182872D01*
X162458056Y-84182872D01*
X162371112Y-84201353D01*
X162277712Y-84221206D01*
X162271682Y-84223891D01*
X162271681Y-84223891D01*
X162109278Y-84296197D01*
X162109276Y-84296198D01*
X162103248Y-84298882D01*
X161948747Y-84411134D01*
X161820960Y-84553056D01*
X161725473Y-84718444D01*
X161666458Y-84900072D01*
X161665768Y-84906633D01*
X161665768Y-84906635D01*
X161660420Y-84957523D01*
X161646496Y-85090000D01*
X161647186Y-85096565D01*
X161660752Y-85225634D01*
X161666458Y-85279928D01*
X161725473Y-85461556D01*
X161820960Y-85626944D01*
X161894137Y-85708215D01*
X161924853Y-85772221D01*
X161926500Y-85792524D01*
X161926500Y-86725218D01*
X161906498Y-86793339D01*
X161852842Y-86839832D01*
X161782568Y-86849936D01*
X161747270Y-86837718D01*
X161746752Y-86838882D01*
X161578319Y-86763891D01*
X161578318Y-86763891D01*
X161572288Y-86761206D01*
X161478887Y-86741353D01*
X161391944Y-86722872D01*
X161391939Y-86722872D01*
X161385487Y-86721500D01*
X161194513Y-86721500D01*
X161188061Y-86722872D01*
X161188056Y-86722872D01*
X161101113Y-86741353D01*
X161007712Y-86761206D01*
X161001685Y-86763889D01*
X161001677Y-86763892D01*
X160955748Y-86784341D01*
X160885381Y-86793775D01*
X160821084Y-86763668D01*
X160783271Y-86703579D01*
X160778500Y-86669234D01*
X160778500Y-82617069D01*
X160779933Y-82598118D01*
X160782099Y-82583883D01*
X160782099Y-82583881D01*
X160783199Y-82576651D01*
X160778915Y-82523982D01*
X160778500Y-82513767D01*
X160778500Y-82505707D01*
X160775853Y-82482998D01*
X160775211Y-82477493D01*
X160774778Y-82473118D01*
X160769454Y-82407661D01*
X160769453Y-82407658D01*
X160768860Y-82400363D01*
X160766604Y-82393399D01*
X160765413Y-82387440D01*
X160764029Y-82381585D01*
X160763182Y-82374319D01*
X160738265Y-82305673D01*
X160736848Y-82301545D01*
X160716607Y-82239064D01*
X160716606Y-82239062D01*
X160714351Y-82232101D01*
X160710555Y-82225846D01*
X160708049Y-82220372D01*
X160705330Y-82214942D01*
X160702833Y-82208063D01*
X160662809Y-82147016D01*
X160660472Y-82143312D01*
X160625509Y-82085693D01*
X160625505Y-82085688D01*
X160622595Y-82080892D01*
X160615197Y-82072516D01*
X160615223Y-82072493D01*
X160612574Y-82069503D01*
X160609866Y-82066264D01*
X160605856Y-82060148D01*
X160600549Y-82055121D01*
X160600546Y-82055117D01*
X160549617Y-82006872D01*
X160547175Y-82004494D01*
X159333770Y-80791089D01*
X159321384Y-80776677D01*
X159312851Y-80765082D01*
X159312846Y-80765077D01*
X159308508Y-80759182D01*
X159302930Y-80754443D01*
X159302927Y-80754440D01*
X159268232Y-80724965D01*
X159260716Y-80718035D01*
X159255021Y-80712340D01*
X159248880Y-80707482D01*
X159232749Y-80694719D01*
X159229345Y-80691928D01*
X159179297Y-80649409D01*
X159179295Y-80649408D01*
X159173715Y-80644667D01*
X159167199Y-80641339D01*
X159162150Y-80637972D01*
X159157021Y-80634805D01*
X159151284Y-80630266D01*
X159085125Y-80599345D01*
X159081225Y-80597439D01*
X159016192Y-80564231D01*
X159009084Y-80562492D01*
X159003441Y-80560393D01*
X158997678Y-80558476D01*
X158991050Y-80555378D01*
X158919583Y-80540513D01*
X158915299Y-80539543D01*
X158844390Y-80522192D01*
X158838788Y-80521844D01*
X158838785Y-80521844D01*
X158833236Y-80521500D01*
X158833238Y-80521464D01*
X158829245Y-80521225D01*
X158825053Y-80520851D01*
X158817885Y-80519360D01*
X158751675Y-80521151D01*
X158740479Y-80521454D01*
X158737072Y-80521500D01*
X155001867Y-80521500D01*
X154933746Y-80501498D01*
X154898655Y-80467772D01*
X154876198Y-80435700D01*
X154714300Y-80273802D01*
X154709792Y-80270645D01*
X154709789Y-80270643D01*
X154631611Y-80215902D01*
X154526749Y-80142477D01*
X154521767Y-80140154D01*
X154521762Y-80140151D01*
X154324225Y-80048039D01*
X154324224Y-80048039D01*
X154319243Y-80045716D01*
X154313935Y-80044294D01*
X154313933Y-80044293D01*
X154103402Y-79987881D01*
X154103400Y-79987881D01*
X154098087Y-79986457D01*
X153998520Y-79977746D01*
X153929851Y-79971738D01*
X153929844Y-79971738D01*
X153927127Y-79971500D01*
X153412873Y-79971500D01*
X153410156Y-79971738D01*
X153410149Y-79971738D01*
X153341480Y-79977746D01*
X153241913Y-79986457D01*
X153236600Y-79987881D01*
X153236598Y-79987881D01*
X153026067Y-80044293D01*
X153026065Y-80044294D01*
X153020757Y-80045716D01*
X153015776Y-80048039D01*
X153015775Y-80048039D01*
X152818238Y-80140151D01*
X152818233Y-80140154D01*
X152813251Y-80142477D01*
X152708389Y-80215902D01*
X152630211Y-80270643D01*
X152630208Y-80270645D01*
X152625700Y-80273802D01*
X152463802Y-80435700D01*
X152332477Y-80623251D01*
X152330154Y-80628233D01*
X152330151Y-80628238D01*
X152260934Y-80776677D01*
X152235716Y-80830757D01*
X152176457Y-81051913D01*
X152156502Y-81280000D01*
X152176457Y-81508087D01*
X152235716Y-81729243D01*
X152238039Y-81734224D01*
X152238039Y-81734225D01*
X152330151Y-81931762D01*
X152330154Y-81931767D01*
X152332477Y-81936749D01*
X152335634Y-81941257D01*
X152425433Y-82069503D01*
X152463802Y-82124300D01*
X152625700Y-82286198D01*
X152630208Y-82289355D01*
X152630211Y-82289357D01*
X152653560Y-82305706D01*
X152813251Y-82417523D01*
X152818233Y-82419846D01*
X152818238Y-82419849D01*
X152852457Y-82435805D01*
X152905742Y-82482722D01*
X152925203Y-82550999D01*
X152904661Y-82618959D01*
X152852457Y-82664195D01*
X152818238Y-82680151D01*
X152818233Y-82680154D01*
X152813251Y-82682477D01*
X152708389Y-82755902D01*
X152630211Y-82810643D01*
X152630208Y-82810645D01*
X152625700Y-82813802D01*
X152463802Y-82975700D01*
X152332477Y-83163251D01*
X152330154Y-83168233D01*
X152330151Y-83168238D01*
X152238539Y-83364702D01*
X152235716Y-83370757D01*
X152234294Y-83376065D01*
X152234293Y-83376067D01*
X152190042Y-83541213D01*
X152176457Y-83591913D01*
X152156502Y-83820000D01*
X152176457Y-84048087D01*
X152177881Y-84053400D01*
X152177881Y-84053402D01*
X152195140Y-84117811D01*
X152235716Y-84269243D01*
X152238039Y-84274224D01*
X152238039Y-84274225D01*
X152330151Y-84471762D01*
X152330154Y-84471767D01*
X152332477Y-84476749D01*
X152463802Y-84664300D01*
X152625700Y-84826198D01*
X152630208Y-84829355D01*
X152630211Y-84829357D01*
X152708389Y-84884098D01*
X152813251Y-84957523D01*
X152818233Y-84959846D01*
X152818238Y-84959849D01*
X152852457Y-84975805D01*
X152905742Y-85022722D01*
X152925203Y-85090999D01*
X152904661Y-85158959D01*
X152852457Y-85204195D01*
X152818238Y-85220151D01*
X152818233Y-85220154D01*
X152813251Y-85222477D01*
X152740576Y-85273365D01*
X152630211Y-85350643D01*
X152630208Y-85350645D01*
X152625700Y-85353802D01*
X152463802Y-85515700D01*
X152332477Y-85703251D01*
X152330154Y-85708233D01*
X152330151Y-85708238D01*
X152238039Y-85905775D01*
X152235716Y-85910757D01*
X152176457Y-86131913D01*
X152156502Y-86360000D01*
X152176457Y-86588087D01*
X152177881Y-86593400D01*
X152177881Y-86593402D01*
X152231455Y-86793339D01*
X152235716Y-86809243D01*
X152238039Y-86814224D01*
X152238039Y-86814225D01*
X152330151Y-87011762D01*
X152330154Y-87011767D01*
X152332477Y-87016749D01*
X152463802Y-87204300D01*
X152625700Y-87366198D01*
X152630208Y-87369355D01*
X152630211Y-87369357D01*
X152708389Y-87424098D01*
X152813251Y-87497523D01*
X152818233Y-87499846D01*
X152818238Y-87499849D01*
X152852457Y-87515805D01*
X152905742Y-87562722D01*
X152925203Y-87630999D01*
X152904661Y-87698959D01*
X152852457Y-87744195D01*
X152818238Y-87760151D01*
X152818233Y-87760154D01*
X152813251Y-87762477D01*
X152740576Y-87813365D01*
X152630211Y-87890643D01*
X152630208Y-87890645D01*
X152625700Y-87893802D01*
X152463802Y-88055700D01*
X152332477Y-88243251D01*
X152330154Y-88248233D01*
X152330151Y-88248238D01*
X152238039Y-88445775D01*
X152235716Y-88450757D01*
X152176457Y-88671913D01*
X152156502Y-88900000D01*
X152176457Y-89128087D01*
X152235716Y-89349243D01*
X152238039Y-89354224D01*
X152238039Y-89354225D01*
X152330151Y-89551762D01*
X152330154Y-89551767D01*
X152332477Y-89556749D01*
X152463802Y-89744300D01*
X152625700Y-89906198D01*
X152630208Y-89909355D01*
X152630211Y-89909357D01*
X152708389Y-89964098D01*
X152813251Y-90037523D01*
X152818233Y-90039846D01*
X152818238Y-90039849D01*
X152852457Y-90055805D01*
X152905742Y-90102722D01*
X152925203Y-90170999D01*
X152904661Y-90238959D01*
X152852457Y-90284195D01*
X152818238Y-90300151D01*
X152818233Y-90300154D01*
X152813251Y-90302477D01*
X152708389Y-90375902D01*
X152630211Y-90430643D01*
X152630208Y-90430645D01*
X152625700Y-90433802D01*
X152463802Y-90595700D01*
X152332477Y-90783251D01*
X152330154Y-90788233D01*
X152330151Y-90788238D01*
X152238039Y-90985775D01*
X152235716Y-90990757D01*
X152176457Y-91211913D01*
X152156502Y-91440000D01*
X152176457Y-91668087D01*
X152235716Y-91889243D01*
X152238039Y-91894224D01*
X152238039Y-91894225D01*
X152330151Y-92091762D01*
X152330154Y-92091767D01*
X152332477Y-92096749D01*
X152463802Y-92284300D01*
X152625700Y-92446198D01*
X152630208Y-92449355D01*
X152630211Y-92449357D01*
X152708389Y-92504098D01*
X152813251Y-92577523D01*
X152818233Y-92579846D01*
X152818238Y-92579849D01*
X152852457Y-92595805D01*
X152905742Y-92642722D01*
X152925203Y-92710999D01*
X152904661Y-92778959D01*
X152852457Y-92824195D01*
X152818238Y-92840151D01*
X152818233Y-92840154D01*
X152813251Y-92842477D01*
X152708389Y-92915902D01*
X152630211Y-92970643D01*
X152630208Y-92970645D01*
X152625700Y-92973802D01*
X152463802Y-93135700D01*
X152460645Y-93140208D01*
X152460643Y-93140211D01*
X152426563Y-93188882D01*
X152332477Y-93323251D01*
X152330154Y-93328233D01*
X152330151Y-93328238D01*
X152301880Y-93388866D01*
X152235716Y-93530757D01*
X152234294Y-93536065D01*
X152234293Y-93536067D01*
X152213201Y-93614782D01*
X152176457Y-93751913D01*
X152156502Y-93980000D01*
X152176457Y-94208087D01*
X152177881Y-94213400D01*
X152177881Y-94213402D01*
X152213216Y-94345271D01*
X152235716Y-94429243D01*
X152238039Y-94434224D01*
X152238039Y-94434225D01*
X152330151Y-94631762D01*
X152330154Y-94631767D01*
X152332477Y-94636749D01*
X152463802Y-94824300D01*
X152625700Y-94986198D01*
X152630208Y-94989355D01*
X152630211Y-94989357D01*
X152708389Y-95044098D01*
X152813251Y-95117523D01*
X152818233Y-95119846D01*
X152818238Y-95119849D01*
X152852457Y-95135805D01*
X152905742Y-95182722D01*
X152925203Y-95250999D01*
X152904661Y-95318959D01*
X152852457Y-95364195D01*
X152818238Y-95380151D01*
X152818233Y-95380154D01*
X152813251Y-95382477D01*
X152708389Y-95455902D01*
X152630211Y-95510643D01*
X152630208Y-95510645D01*
X152625700Y-95513802D01*
X152463802Y-95675700D01*
X152332477Y-95863251D01*
X152330154Y-95868233D01*
X152330151Y-95868238D01*
X152238039Y-96065775D01*
X152235716Y-96070757D01*
X152176457Y-96291913D01*
X152156502Y-96520000D01*
X152176457Y-96748087D01*
X152177881Y-96753400D01*
X152177881Y-96753402D01*
X152233941Y-96962617D01*
X152235716Y-96969243D01*
X152238039Y-96974224D01*
X152238039Y-96974225D01*
X152330151Y-97171762D01*
X152330154Y-97171767D01*
X152332477Y-97176749D01*
X152335634Y-97181257D01*
X152454281Y-97350702D01*
X152463802Y-97364300D01*
X152492635Y-97393133D01*
X152526661Y-97455445D01*
X152521596Y-97526260D01*
X152479049Y-97583096D01*
X152447768Y-97600210D01*
X152431707Y-97606231D01*
X152431704Y-97606233D01*
X152423295Y-97609385D01*
X152306739Y-97696739D01*
X152219385Y-97813295D01*
X152168255Y-97949684D01*
X152161500Y-98011866D01*
X152161500Y-100108134D01*
X152168255Y-100170316D01*
X152219385Y-100306705D01*
X152306739Y-100423261D01*
X152423295Y-100510615D01*
X152559684Y-100561745D01*
X152621866Y-100568500D01*
X154718134Y-100568500D01*
X154780316Y-100561745D01*
X154916705Y-100510615D01*
X155033261Y-100423261D01*
X155120615Y-100306705D01*
X155171745Y-100170316D01*
X155178500Y-100108134D01*
X155178500Y-98011866D01*
X155171745Y-97949684D01*
X155120615Y-97813295D01*
X155033261Y-97696739D01*
X154916705Y-97609385D01*
X154908296Y-97606233D01*
X154908293Y-97606231D01*
X154892232Y-97600210D01*
X154835467Y-97557569D01*
X154810766Y-97491008D01*
X154825973Y-97421659D01*
X154847365Y-97393133D01*
X154876198Y-97364300D01*
X154885720Y-97350702D01*
X155004366Y-97181257D01*
X155007523Y-97176749D01*
X155009846Y-97171767D01*
X155009849Y-97171762D01*
X155101961Y-96974225D01*
X155101961Y-96974224D01*
X155104284Y-96969243D01*
X155106060Y-96962617D01*
X155162119Y-96753402D01*
X155162119Y-96753400D01*
X155163543Y-96748087D01*
X155183498Y-96520000D01*
X155163543Y-96291913D01*
X155104284Y-96070757D01*
X155101961Y-96065775D01*
X155009849Y-95868238D01*
X155009846Y-95868233D01*
X155007523Y-95863251D01*
X154876198Y-95675700D01*
X154714300Y-95513802D01*
X154709792Y-95510645D01*
X154709789Y-95510643D01*
X154631611Y-95455902D01*
X154526749Y-95382477D01*
X154521767Y-95380154D01*
X154521762Y-95380151D01*
X154487543Y-95364195D01*
X154434258Y-95317278D01*
X154414797Y-95249001D01*
X154435339Y-95181041D01*
X154487543Y-95135805D01*
X154521762Y-95119849D01*
X154521767Y-95119846D01*
X154526749Y-95117523D01*
X154631611Y-95044098D01*
X154709789Y-94989357D01*
X154709792Y-94989355D01*
X154714300Y-94986198D01*
X154876198Y-94824300D01*
X155007523Y-94636749D01*
X155009846Y-94631767D01*
X155009849Y-94631762D01*
X155101961Y-94434225D01*
X155101961Y-94434224D01*
X155104284Y-94429243D01*
X155126785Y-94345271D01*
X155162119Y-94213402D01*
X155162119Y-94213400D01*
X155163543Y-94208087D01*
X155183498Y-93980000D01*
X155163543Y-93751913D01*
X155126799Y-93614782D01*
X155105707Y-93536067D01*
X155105706Y-93536065D01*
X155104284Y-93530757D01*
X155038120Y-93388866D01*
X155009849Y-93328238D01*
X155009846Y-93328233D01*
X155007523Y-93323251D01*
X154913437Y-93188882D01*
X154879357Y-93140211D01*
X154879355Y-93140208D01*
X154876198Y-93135700D01*
X154714300Y-92973802D01*
X154709792Y-92970645D01*
X154709789Y-92970643D01*
X154631611Y-92915902D01*
X154526749Y-92842477D01*
X154521767Y-92840154D01*
X154521762Y-92840151D01*
X154487543Y-92824195D01*
X154434258Y-92777278D01*
X154414797Y-92709001D01*
X154435339Y-92641041D01*
X154487543Y-92595805D01*
X154521762Y-92579849D01*
X154521767Y-92579846D01*
X154526749Y-92577523D01*
X154631611Y-92504098D01*
X154709789Y-92449357D01*
X154709792Y-92449355D01*
X154714300Y-92446198D01*
X154876198Y-92284300D01*
X155007523Y-92096749D01*
X155009846Y-92091767D01*
X155009849Y-92091762D01*
X155101961Y-91894225D01*
X155101961Y-91894224D01*
X155104284Y-91889243D01*
X155163543Y-91668087D01*
X155183498Y-91440000D01*
X155163543Y-91211913D01*
X155104284Y-90990757D01*
X155101961Y-90985775D01*
X155009849Y-90788238D01*
X155009846Y-90788233D01*
X155007523Y-90783251D01*
X154876198Y-90595700D01*
X154714300Y-90433802D01*
X154709792Y-90430645D01*
X154709789Y-90430643D01*
X154631611Y-90375902D01*
X154526749Y-90302477D01*
X154521767Y-90300154D01*
X154521762Y-90300151D01*
X154487543Y-90284195D01*
X154434258Y-90237278D01*
X154414797Y-90169001D01*
X154435339Y-90101041D01*
X154487543Y-90055805D01*
X154521762Y-90039849D01*
X154521767Y-90039846D01*
X154526749Y-90037523D01*
X154631611Y-89964098D01*
X154709789Y-89909357D01*
X154709792Y-89909355D01*
X154714300Y-89906198D01*
X154876198Y-89744300D01*
X155007523Y-89556749D01*
X155009846Y-89551767D01*
X155009849Y-89551762D01*
X155101961Y-89354225D01*
X155101961Y-89354224D01*
X155104284Y-89349243D01*
X155163543Y-89128087D01*
X155183498Y-88900000D01*
X155163543Y-88671913D01*
X155104284Y-88450757D01*
X155101961Y-88445775D01*
X155009849Y-88248238D01*
X155009846Y-88248233D01*
X155007523Y-88243251D01*
X154876198Y-88055700D01*
X154714300Y-87893802D01*
X154709792Y-87890645D01*
X154709789Y-87890643D01*
X154599424Y-87813365D01*
X154526749Y-87762477D01*
X154521767Y-87760154D01*
X154521762Y-87760151D01*
X154487543Y-87744195D01*
X154434258Y-87697278D01*
X154414797Y-87629001D01*
X154435339Y-87561041D01*
X154487543Y-87515805D01*
X154521762Y-87499849D01*
X154521767Y-87499846D01*
X154526749Y-87497523D01*
X154631611Y-87424098D01*
X154709789Y-87369357D01*
X154709792Y-87369355D01*
X154714300Y-87366198D01*
X154876198Y-87204300D01*
X155007523Y-87016749D01*
X155009846Y-87011767D01*
X155009849Y-87011762D01*
X155101961Y-86814225D01*
X155101961Y-86814224D01*
X155104284Y-86809243D01*
X155108546Y-86793339D01*
X155162119Y-86593402D01*
X155162119Y-86593400D01*
X155163543Y-86588087D01*
X155183498Y-86360000D01*
X155163543Y-86131913D01*
X155104284Y-85910757D01*
X155101961Y-85905775D01*
X155009849Y-85708238D01*
X155009846Y-85708233D01*
X155007523Y-85703251D01*
X154876198Y-85515700D01*
X154714300Y-85353802D01*
X154709792Y-85350645D01*
X154709789Y-85350643D01*
X154599424Y-85273365D01*
X154526749Y-85222477D01*
X154521767Y-85220154D01*
X154521762Y-85220151D01*
X154487543Y-85204195D01*
X154434258Y-85157278D01*
X154414797Y-85089001D01*
X154435339Y-85021041D01*
X154487543Y-84975805D01*
X154521762Y-84959849D01*
X154521767Y-84959846D01*
X154526749Y-84957523D01*
X154631611Y-84884098D01*
X154709789Y-84829357D01*
X154709792Y-84829355D01*
X154714300Y-84826198D01*
X154876198Y-84664300D01*
X155007523Y-84476749D01*
X155009846Y-84471767D01*
X155009849Y-84471762D01*
X155101961Y-84274225D01*
X155101961Y-84274224D01*
X155104284Y-84269243D01*
X155144861Y-84117811D01*
X155162119Y-84053402D01*
X155162119Y-84053400D01*
X155163543Y-84048087D01*
X155183498Y-83820000D01*
X155163543Y-83591913D01*
X155149958Y-83541213D01*
X155105707Y-83376067D01*
X155105706Y-83376065D01*
X155104284Y-83370757D01*
X155101461Y-83364702D01*
X155009849Y-83168238D01*
X155009846Y-83168233D01*
X155007523Y-83163251D01*
X154876198Y-82975700D01*
X154714300Y-82813802D01*
X154709792Y-82810645D01*
X154709789Y-82810643D01*
X154631611Y-82755902D01*
X154526749Y-82682477D01*
X154521767Y-82680154D01*
X154521762Y-82680151D01*
X154487543Y-82664195D01*
X154434258Y-82617278D01*
X154414797Y-82549001D01*
X154435339Y-82481041D01*
X154487543Y-82435805D01*
X154521762Y-82419849D01*
X154521767Y-82419846D01*
X154526749Y-82417523D01*
X154686440Y-82305706D01*
X154709789Y-82289357D01*
X154709792Y-82289355D01*
X154714300Y-82286198D01*
X154876198Y-82124300D01*
X154898655Y-82092229D01*
X154954110Y-82047901D01*
X155001867Y-82038500D01*
X158383629Y-82038500D01*
X158451750Y-82058502D01*
X158472724Y-82075405D01*
X159224595Y-82827276D01*
X159258621Y-82889588D01*
X159261500Y-82916371D01*
X159261500Y-93443001D01*
X159244619Y-93506001D01*
X159202592Y-93578794D01*
X159185473Y-93608444D01*
X159126458Y-93790072D01*
X159106496Y-93980000D01*
X159126458Y-94169928D01*
X159185473Y-94351556D01*
X159188776Y-94357278D01*
X159188777Y-94357279D01*
X159244619Y-94453999D01*
X159261500Y-94516999D01*
X159261500Y-96597655D01*
X159241498Y-96665776D01*
X159211153Y-96698415D01*
X159144996Y-96748087D01*
X159114965Y-96770635D01*
X158960629Y-96932138D01*
X158834743Y-97116680D01*
X158740688Y-97319305D01*
X158680989Y-97534570D01*
X158657251Y-97756695D01*
X158657548Y-97761848D01*
X158657548Y-97761851D01*
X158663011Y-97856590D01*
X158670110Y-97979715D01*
X158671247Y-97984761D01*
X158671248Y-97984767D01*
X158686806Y-98053802D01*
X158719222Y-98197639D01*
X158803266Y-98404616D01*
X158854019Y-98487438D01*
X158917291Y-98590688D01*
X158919987Y-98595088D01*
X159066250Y-98763938D01*
X159070225Y-98767238D01*
X159070231Y-98767244D01*
X159075425Y-98771556D01*
X159115059Y-98830460D01*
X159116555Y-98901441D01*
X159079439Y-98961962D01*
X159039168Y-98986480D01*
X158931946Y-99026676D01*
X158916351Y-99035214D01*
X158814276Y-99111715D01*
X158801715Y-99124276D01*
X158725214Y-99226351D01*
X158716676Y-99241946D01*
X158671522Y-99362394D01*
X158667895Y-99377649D01*
X158662369Y-99428514D01*
X158662000Y-99435328D01*
X158662000Y-100057885D01*
X158666475Y-100073124D01*
X158667865Y-100074329D01*
X158675548Y-100076000D01*
X160148000Y-100076000D01*
X160216121Y-100096002D01*
X160262614Y-100149658D01*
X160274000Y-100202000D01*
X160274000Y-101669884D01*
X160278475Y-101685123D01*
X160279865Y-101686328D01*
X160287548Y-101687999D01*
X160914669Y-101687999D01*
X160921490Y-101687629D01*
X160972352Y-101682105D01*
X160987604Y-101678479D01*
X161108054Y-101633324D01*
X161123649Y-101624786D01*
X161225724Y-101548285D01*
X161238285Y-101535724D01*
X161314786Y-101433649D01*
X161323324Y-101418054D01*
X161364225Y-101308952D01*
X161406867Y-101252188D01*
X161473428Y-101227488D01*
X161542777Y-101242696D01*
X161577444Y-101270684D01*
X161602865Y-101300031D01*
X161602869Y-101300035D01*
X161606250Y-101303938D01*
X161778126Y-101446632D01*
X161971000Y-101559338D01*
X162179692Y-101639030D01*
X162184760Y-101640061D01*
X162184763Y-101640062D01*
X162263436Y-101656068D01*
X162398597Y-101683567D01*
X162403772Y-101683757D01*
X162403774Y-101683757D01*
X162616673Y-101691564D01*
X162616677Y-101691564D01*
X162621837Y-101691753D01*
X162626957Y-101691097D01*
X162626959Y-101691097D01*
X162838288Y-101664025D01*
X162838289Y-101664025D01*
X162843416Y-101663368D01*
X162867748Y-101656068D01*
X163052429Y-101600661D01*
X163052434Y-101600659D01*
X163057384Y-101599174D01*
X163257994Y-101500896D01*
X163439860Y-101371173D01*
X163598096Y-101213489D01*
X163728453Y-101032077D01*
X163729776Y-101033028D01*
X163776645Y-100989857D01*
X163846580Y-100977625D01*
X163912026Y-101005144D01*
X163939875Y-101036994D01*
X163999987Y-101135088D01*
X164146250Y-101303938D01*
X164318126Y-101446632D01*
X164511000Y-101559338D01*
X164719692Y-101639030D01*
X164724760Y-101640061D01*
X164724763Y-101640062D01*
X164803436Y-101656068D01*
X164938597Y-101683567D01*
X164943772Y-101683757D01*
X164943774Y-101683757D01*
X165156673Y-101691564D01*
X165156677Y-101691564D01*
X165161837Y-101691753D01*
X165166957Y-101691097D01*
X165166959Y-101691097D01*
X165378288Y-101664025D01*
X165378289Y-101664025D01*
X165383416Y-101663368D01*
X165448913Y-101643718D01*
X165574292Y-101606102D01*
X165645288Y-101605685D01*
X165705238Y-101643718D01*
X165735110Y-101708124D01*
X165736500Y-101726788D01*
X165736500Y-102555405D01*
X165716498Y-102623526D01*
X165699595Y-102644500D01*
X164707747Y-103636348D01*
X164699461Y-103643888D01*
X164692982Y-103648000D01*
X164687557Y-103653777D01*
X164646357Y-103697651D01*
X164643602Y-103700493D01*
X164623865Y-103720230D01*
X164621385Y-103723427D01*
X164613682Y-103732447D01*
X164583414Y-103764679D01*
X164579595Y-103771625D01*
X164579593Y-103771628D01*
X164573652Y-103782434D01*
X164562801Y-103798953D01*
X164550386Y-103814959D01*
X164547241Y-103822228D01*
X164547238Y-103822232D01*
X164532826Y-103855537D01*
X164527609Y-103866187D01*
X164506305Y-103904940D01*
X164504334Y-103912615D01*
X164504334Y-103912616D01*
X164501267Y-103924562D01*
X164494863Y-103943266D01*
X164486819Y-103961855D01*
X164485580Y-103969678D01*
X164485577Y-103969688D01*
X164479901Y-104005524D01*
X164477495Y-104017144D01*
X164466500Y-104059970D01*
X164466500Y-104080224D01*
X164464949Y-104099934D01*
X164461780Y-104119943D01*
X164462526Y-104127835D01*
X164465941Y-104163961D01*
X164466500Y-104175819D01*
X164466500Y-106410255D01*
X164465973Y-106421438D01*
X164464298Y-106428931D01*
X164464547Y-106436857D01*
X164464547Y-106436858D01*
X164466438Y-106497008D01*
X164466500Y-106500967D01*
X164466500Y-106528878D01*
X164466997Y-106532812D01*
X164466997Y-106532813D01*
X164467005Y-106532878D01*
X164467938Y-106544715D01*
X164469327Y-106588911D01*
X164474978Y-106608361D01*
X164478987Y-106627722D01*
X164481526Y-106647819D01*
X164484445Y-106655190D01*
X164484445Y-106655192D01*
X164497804Y-106688934D01*
X164501649Y-106700164D01*
X164513982Y-106742615D01*
X164518015Y-106749434D01*
X164518017Y-106749439D01*
X164524293Y-106760050D01*
X164532988Y-106777798D01*
X164540448Y-106796639D01*
X164545110Y-106803055D01*
X164545110Y-106803056D01*
X164566436Y-106832409D01*
X164572952Y-106842329D01*
X164595458Y-106880384D01*
X164609779Y-106894705D01*
X164622619Y-106909738D01*
X164634528Y-106926129D01*
X164640634Y-106931180D01*
X164668605Y-106954320D01*
X164677384Y-106962310D01*
X164882810Y-107167736D01*
X164890354Y-107176026D01*
X164894467Y-107182507D01*
X164900244Y-107187932D01*
X164944134Y-107229147D01*
X164946976Y-107231902D01*
X164966698Y-107251624D01*
X164969822Y-107254047D01*
X164969826Y-107254051D01*
X164969891Y-107254101D01*
X164978912Y-107261806D01*
X165011146Y-107292075D01*
X165018094Y-107295894D01*
X165018096Y-107295896D01*
X165028899Y-107301835D01*
X165045423Y-107312689D01*
X165056642Y-107321391D01*
X165098208Y-107378947D01*
X165102059Y-107449839D01*
X165095109Y-107469929D01*
X165095122Y-107469934D01*
X165094882Y-107470585D01*
X165093697Y-107474012D01*
X165093334Y-107474794D01*
X165089777Y-107484462D01*
X165034389Y-107684183D01*
X165035912Y-107692607D01*
X165048292Y-107696000D01*
X166498000Y-107696000D01*
X166566121Y-107716002D01*
X166612614Y-107769658D01*
X166624000Y-107822000D01*
X166624000Y-108078000D01*
X166603998Y-108146121D01*
X166550342Y-108192614D01*
X166498000Y-108204000D01*
X165053225Y-108204000D01*
X165039694Y-108207973D01*
X165038257Y-108217966D01*
X165068565Y-108352446D01*
X165071645Y-108362275D01*
X165151770Y-108559603D01*
X165156413Y-108568794D01*
X165267694Y-108750388D01*
X165273777Y-108758699D01*
X165413213Y-108919667D01*
X165420580Y-108926883D01*
X165584434Y-109062916D01*
X165592881Y-109068831D01*
X165776756Y-109176279D01*
X165786042Y-109180729D01*
X165985001Y-109256703D01*
X165994900Y-109259579D01*
X166029853Y-109266690D01*
X166092619Y-109299871D01*
X166127482Y-109361718D01*
X166123373Y-109432596D01*
X166093829Y-109479256D01*
X165753490Y-109819595D01*
X165691178Y-109853621D01*
X165664395Y-109856500D01*
X148678763Y-109856500D01*
X148667579Y-109855973D01*
X148660091Y-109854299D01*
X148652168Y-109854548D01*
X148592033Y-109856438D01*
X148588075Y-109856500D01*
X148560144Y-109856500D01*
X148556229Y-109856995D01*
X148556225Y-109856995D01*
X148556167Y-109857003D01*
X148556138Y-109857006D01*
X148544296Y-109857939D01*
X148500110Y-109859327D01*
X148482744Y-109864372D01*
X148480658Y-109864978D01*
X148461306Y-109868986D01*
X148449068Y-109870532D01*
X148449066Y-109870533D01*
X148441203Y-109871526D01*
X148400086Y-109887806D01*
X148388885Y-109891641D01*
X148346406Y-109903982D01*
X148339587Y-109908015D01*
X148339582Y-109908017D01*
X148328971Y-109914293D01*
X148311221Y-109922990D01*
X148292383Y-109930448D01*
X148285967Y-109935109D01*
X148285966Y-109935110D01*
X148256625Y-109956428D01*
X148246701Y-109962947D01*
X148215460Y-109981422D01*
X148215455Y-109981426D01*
X148208637Y-109985458D01*
X148194313Y-109999782D01*
X148179281Y-110012621D01*
X148162893Y-110024528D01*
X148134712Y-110058593D01*
X148126722Y-110067373D01*
X146517345Y-111676750D01*
X146455033Y-111710776D01*
X146406154Y-111711702D01*
X146193373Y-111673800D01*
X146193367Y-111673799D01*
X146188284Y-111672894D01*
X146114452Y-111671992D01*
X145970081Y-111670228D01*
X145970079Y-111670228D01*
X145964911Y-111670165D01*
X145744091Y-111703955D01*
X145531756Y-111773357D01*
X145333607Y-111876507D01*
X145329474Y-111879610D01*
X145329471Y-111879612D01*
X145159100Y-112007530D01*
X145154965Y-112010635D01*
X145000629Y-112172138D01*
X144893201Y-112329621D01*
X144838293Y-112374621D01*
X144767768Y-112382792D01*
X144704021Y-112351538D01*
X144683324Y-112327054D01*
X144602822Y-112202617D01*
X144602820Y-112202614D01*
X144600014Y-112198277D01*
X144449670Y-112033051D01*
X144445619Y-112029852D01*
X144445615Y-112029848D01*
X144278414Y-111897800D01*
X144278410Y-111897798D01*
X144274359Y-111894598D01*
X144078789Y-111786638D01*
X144073920Y-111784914D01*
X144073916Y-111784912D01*
X143873087Y-111713795D01*
X143873083Y-111713794D01*
X143868212Y-111712069D01*
X143863119Y-111711162D01*
X143863116Y-111711161D01*
X143653373Y-111673800D01*
X143653367Y-111673799D01*
X143648284Y-111672894D01*
X143574452Y-111671992D01*
X143430081Y-111670228D01*
X143430079Y-111670228D01*
X143424911Y-111670165D01*
X143204091Y-111703955D01*
X142991756Y-111773357D01*
X142793607Y-111876507D01*
X142789474Y-111879610D01*
X142789471Y-111879612D01*
X142619100Y-112007530D01*
X142614965Y-112010635D01*
X142460629Y-112172138D01*
X142353201Y-112329621D01*
X142298293Y-112374621D01*
X142227768Y-112382792D01*
X142164021Y-112351538D01*
X142143324Y-112327054D01*
X142062822Y-112202617D01*
X142062820Y-112202614D01*
X142060014Y-112198277D01*
X141909670Y-112033051D01*
X141905619Y-112029852D01*
X141905615Y-112029848D01*
X141738414Y-111897800D01*
X141738410Y-111897798D01*
X141734359Y-111894598D01*
X141538789Y-111786638D01*
X141533920Y-111784914D01*
X141533916Y-111784912D01*
X141333087Y-111713795D01*
X141333083Y-111713794D01*
X141328212Y-111712069D01*
X141323119Y-111711162D01*
X141323116Y-111711161D01*
X141113373Y-111673800D01*
X141113367Y-111673799D01*
X141108284Y-111672894D01*
X141034452Y-111671992D01*
X140890081Y-111670228D01*
X140890079Y-111670228D01*
X140884911Y-111670165D01*
X140664091Y-111703955D01*
X140451756Y-111773357D01*
X140253607Y-111876507D01*
X140249474Y-111879610D01*
X140249471Y-111879612D01*
X140079100Y-112007530D01*
X140074965Y-112010635D01*
X139920629Y-112172138D01*
X139813201Y-112329621D01*
X139758293Y-112374621D01*
X139687768Y-112382792D01*
X139624021Y-112351538D01*
X139603324Y-112327054D01*
X139522822Y-112202617D01*
X139522820Y-112202614D01*
X139520014Y-112198277D01*
X139369670Y-112033051D01*
X139365619Y-112029852D01*
X139365615Y-112029848D01*
X139198414Y-111897800D01*
X139198410Y-111897798D01*
X139194359Y-111894598D01*
X138998789Y-111786638D01*
X138993920Y-111784914D01*
X138993916Y-111784912D01*
X138793087Y-111713795D01*
X138793083Y-111713794D01*
X138788212Y-111712069D01*
X138783119Y-111711162D01*
X138783116Y-111711161D01*
X138573373Y-111673800D01*
X138573367Y-111673799D01*
X138568284Y-111672894D01*
X138494452Y-111671992D01*
X138350081Y-111670228D01*
X138350079Y-111670228D01*
X138344911Y-111670165D01*
X138124091Y-111703955D01*
X137911756Y-111773357D01*
X137713607Y-111876507D01*
X137709474Y-111879610D01*
X137709471Y-111879612D01*
X137539100Y-112007530D01*
X137534965Y-112010635D01*
X137380629Y-112172138D01*
X137273204Y-112329618D01*
X137272898Y-112330066D01*
X137217987Y-112375069D01*
X137147462Y-112383240D01*
X137083715Y-112351986D01*
X137063018Y-112327502D01*
X136982426Y-112202926D01*
X136976136Y-112194757D01*
X136832806Y-112037240D01*
X136825273Y-112030215D01*
X136658139Y-111898222D01*
X136649552Y-111892517D01*
X136463117Y-111789599D01*
X136453705Y-111785369D01*
X136252959Y-111714280D01*
X136242988Y-111711646D01*
X136171837Y-111698972D01*
X136158540Y-111700432D01*
X136154000Y-111714989D01*
X136154000Y-113158000D01*
X136133998Y-113226121D01*
X136080342Y-113272614D01*
X136028000Y-113284000D01*
X135772000Y-113284000D01*
X135703879Y-113263998D01*
X135657386Y-113210342D01*
X135646000Y-113158000D01*
X135646000Y-111713102D01*
X135642082Y-111699758D01*
X135627806Y-111697771D01*
X135589324Y-111703660D01*
X135579288Y-111706051D01*
X135418645Y-111758557D01*
X135347681Y-111760708D01*
X135286819Y-111724152D01*
X135255383Y-111660494D01*
X135253500Y-111638792D01*
X135253500Y-107528134D01*
X157441500Y-107528134D01*
X157448255Y-107590316D01*
X157499385Y-107726705D01*
X157586739Y-107843261D01*
X157703295Y-107930615D01*
X157839684Y-107981745D01*
X157901866Y-107988500D01*
X159598134Y-107988500D01*
X159660316Y-107981745D01*
X159796705Y-107930615D01*
X159913261Y-107843261D01*
X159971119Y-107766062D01*
X160528493Y-107766062D01*
X160537789Y-107778077D01*
X160588994Y-107813931D01*
X160598489Y-107819414D01*
X160795947Y-107911490D01*
X160806239Y-107915236D01*
X161016688Y-107971625D01*
X161027481Y-107973528D01*
X161244525Y-107992517D01*
X161255475Y-107992517D01*
X161472519Y-107973528D01*
X161483312Y-107971625D01*
X161693761Y-107915236D01*
X161704053Y-107911490D01*
X161901511Y-107819414D01*
X161911006Y-107813931D01*
X161963048Y-107777491D01*
X161971424Y-107767012D01*
X161964356Y-107753566D01*
X161262812Y-107052022D01*
X161248868Y-107044408D01*
X161247035Y-107044539D01*
X161240420Y-107048790D01*
X160534923Y-107754287D01*
X160528493Y-107766062D01*
X159971119Y-107766062D01*
X160000615Y-107726705D01*
X160051745Y-107590316D01*
X160058500Y-107528134D01*
X160058500Y-107524815D01*
X160082153Y-107457890D01*
X160128156Y-107422196D01*
X160127141Y-107420266D01*
X160138000Y-107414558D01*
X160138245Y-107414368D01*
X160138403Y-107414347D01*
X160176434Y-107394356D01*
X160877978Y-106692812D01*
X160884356Y-106681132D01*
X161614408Y-106681132D01*
X161614539Y-106682965D01*
X161618790Y-106689580D01*
X162324287Y-107395077D01*
X162336062Y-107401507D01*
X162348077Y-107392211D01*
X162383931Y-107341006D01*
X162389414Y-107331511D01*
X162481490Y-107134053D01*
X162485236Y-107123761D01*
X162541625Y-106913312D01*
X162543528Y-106902519D01*
X162562517Y-106685475D01*
X162562517Y-106674525D01*
X162543528Y-106457481D01*
X162541625Y-106446688D01*
X162485236Y-106236239D01*
X162481490Y-106225947D01*
X162389414Y-106028489D01*
X162383931Y-106018994D01*
X162347491Y-105966952D01*
X162337012Y-105958576D01*
X162323566Y-105965644D01*
X161622022Y-106667188D01*
X161614408Y-106681132D01*
X160884356Y-106681132D01*
X160885592Y-106678868D01*
X160885461Y-106677035D01*
X160881210Y-106670420D01*
X160175713Y-105964923D01*
X160133971Y-105942129D01*
X160123971Y-105939953D01*
X160073773Y-105889747D01*
X160058549Y-105836186D01*
X160058500Y-105835281D01*
X160058500Y-105831866D01*
X160051745Y-105769684D01*
X160000615Y-105633295D01*
X159970407Y-105592988D01*
X160528576Y-105592988D01*
X160535644Y-105606434D01*
X161237188Y-106307978D01*
X161251132Y-106315592D01*
X161252965Y-106315461D01*
X161259580Y-106311210D01*
X161965077Y-105605713D01*
X161971507Y-105593938D01*
X161962211Y-105581923D01*
X161911006Y-105546069D01*
X161901511Y-105540586D01*
X161704053Y-105448510D01*
X161693761Y-105444764D01*
X161483312Y-105388375D01*
X161472519Y-105386472D01*
X161255475Y-105367483D01*
X161244525Y-105367483D01*
X161027481Y-105386472D01*
X161016688Y-105388375D01*
X160806239Y-105444764D01*
X160795947Y-105448510D01*
X160598489Y-105540586D01*
X160588994Y-105546069D01*
X160536952Y-105582509D01*
X160528576Y-105592988D01*
X159970407Y-105592988D01*
X159913261Y-105516739D01*
X159796705Y-105429385D01*
X159660316Y-105378255D01*
X159598134Y-105371500D01*
X157901866Y-105371500D01*
X157839684Y-105378255D01*
X157703295Y-105429385D01*
X157586739Y-105516739D01*
X157499385Y-105633295D01*
X157448255Y-105769684D01*
X157441500Y-105831866D01*
X157441500Y-107528134D01*
X135253500Y-107528134D01*
X135253500Y-101224669D01*
X158662001Y-101224669D01*
X158662371Y-101231490D01*
X158667895Y-101282352D01*
X158671521Y-101297604D01*
X158716676Y-101418054D01*
X158725214Y-101433649D01*
X158801715Y-101535724D01*
X158814276Y-101548285D01*
X158916351Y-101624786D01*
X158931946Y-101633324D01*
X159052394Y-101678478D01*
X159067649Y-101682105D01*
X159118514Y-101687631D01*
X159125328Y-101688000D01*
X159747885Y-101688000D01*
X159763124Y-101683525D01*
X159764329Y-101682135D01*
X159766000Y-101674452D01*
X159766000Y-100602115D01*
X159761525Y-100586876D01*
X159760135Y-100585671D01*
X159752452Y-100584000D01*
X158680116Y-100584000D01*
X158664877Y-100588475D01*
X158663672Y-100589865D01*
X158662001Y-100597548D01*
X158662001Y-101224669D01*
X135253500Y-101224669D01*
X135253500Y-94682524D01*
X135273502Y-94614403D01*
X135285858Y-94598221D01*
X135359040Y-94516944D01*
X135454527Y-94351556D01*
X135513542Y-94169928D01*
X135533504Y-93980000D01*
X135513542Y-93790072D01*
X135454527Y-93608444D01*
X135359040Y-93443056D01*
X135246501Y-93318068D01*
X135235675Y-93306045D01*
X135235674Y-93306044D01*
X135231253Y-93301134D01*
X135076752Y-93188882D01*
X135070724Y-93186198D01*
X135070722Y-93186197D01*
X134908319Y-93113891D01*
X134908318Y-93113891D01*
X134902288Y-93111206D01*
X134808887Y-93091353D01*
X134721944Y-93072872D01*
X134721939Y-93072872D01*
X134715487Y-93071500D01*
X134524513Y-93071500D01*
X134518061Y-93072872D01*
X134518056Y-93072872D01*
X134431113Y-93091353D01*
X134337712Y-93111206D01*
X134331685Y-93113889D01*
X134331677Y-93113892D01*
X134170748Y-93185542D01*
X134100381Y-93194976D01*
X134036084Y-93164869D01*
X133998271Y-93104780D01*
X133993500Y-93070435D01*
X133993500Y-83908768D01*
X133994027Y-83897585D01*
X133995702Y-83890092D01*
X133993562Y-83822001D01*
X133993500Y-83818044D01*
X133993500Y-83790144D01*
X133992996Y-83786153D01*
X133992063Y-83774311D01*
X133990923Y-83738036D01*
X133990674Y-83730111D01*
X133985021Y-83710652D01*
X133981012Y-83691293D01*
X133980846Y-83689983D01*
X133978474Y-83671203D01*
X133975558Y-83663837D01*
X133975556Y-83663831D01*
X133962200Y-83630098D01*
X133958355Y-83618868D01*
X133948230Y-83584017D01*
X133948230Y-83584016D01*
X133946019Y-83576407D01*
X133935705Y-83558966D01*
X133927008Y-83541213D01*
X133922472Y-83529758D01*
X133919552Y-83522383D01*
X133893563Y-83486612D01*
X133887047Y-83476692D01*
X133868578Y-83445463D01*
X133864542Y-83438638D01*
X133850221Y-83424317D01*
X133837380Y-83409283D01*
X133830131Y-83399306D01*
X133825472Y-83392893D01*
X133791395Y-83364702D01*
X133782616Y-83356712D01*
X132276885Y-81850981D01*
X132242859Y-81788669D01*
X132246305Y-81729784D01*
X132244284Y-81729243D01*
X132302119Y-81513402D01*
X132302119Y-81513400D01*
X132303543Y-81508087D01*
X132323498Y-81280000D01*
X132303543Y-81051913D01*
X132244284Y-80830757D01*
X132219066Y-80776677D01*
X132149849Y-80628238D01*
X132149846Y-80628233D01*
X132147523Y-80623251D01*
X132016198Y-80435700D01*
X131854300Y-80273802D01*
X131849792Y-80270645D01*
X131849789Y-80270643D01*
X131771611Y-80215902D01*
X131666749Y-80142477D01*
X131661767Y-80140154D01*
X131661762Y-80140151D01*
X131464225Y-80048039D01*
X131464224Y-80048039D01*
X131459243Y-80045716D01*
X131453935Y-80044294D01*
X131453933Y-80044293D01*
X131243402Y-79987881D01*
X131243400Y-79987881D01*
X131238087Y-79986457D01*
X131138520Y-79977746D01*
X131069851Y-79971738D01*
X131069844Y-79971738D01*
X131067127Y-79971500D01*
X130552873Y-79971500D01*
X130550156Y-79971738D01*
X130550149Y-79971738D01*
X130481480Y-79977746D01*
X130381913Y-79986457D01*
X130376600Y-79987881D01*
X130376598Y-79987881D01*
X130166067Y-80044293D01*
X130166065Y-80044294D01*
X130160757Y-80045716D01*
X130155776Y-80048039D01*
X130155775Y-80048039D01*
X129958238Y-80140151D01*
X129958233Y-80140154D01*
X129953251Y-80142477D01*
X129848389Y-80215902D01*
X129770211Y-80270643D01*
X129770208Y-80270645D01*
X129765700Y-80273802D01*
X129603802Y-80435700D01*
X129472477Y-80623251D01*
X129470154Y-80628233D01*
X129470151Y-80628238D01*
X129400934Y-80776677D01*
X129375716Y-80830757D01*
X129316457Y-81051913D01*
X129296502Y-81280000D01*
X129316457Y-81508087D01*
X129375716Y-81729243D01*
X129378039Y-81734224D01*
X129378039Y-81734225D01*
X129470151Y-81931762D01*
X129470154Y-81931767D01*
X129472477Y-81936749D01*
X129475634Y-81941257D01*
X129565433Y-82069503D01*
X129603802Y-82124300D01*
X129765700Y-82286198D01*
X129770208Y-82289355D01*
X129770211Y-82289357D01*
X129793560Y-82305706D01*
X129953251Y-82417523D01*
X129958233Y-82419846D01*
X129958238Y-82419849D01*
X129993049Y-82436081D01*
X130046334Y-82482998D01*
X130065795Y-82551275D01*
X130045253Y-82619235D01*
X129993049Y-82664471D01*
X129958489Y-82680586D01*
X129948993Y-82686069D01*
X129770533Y-82811028D01*
X129762125Y-82818084D01*
X129608084Y-82972125D01*
X129601028Y-82980533D01*
X129476069Y-83158993D01*
X129470586Y-83168489D01*
X129378510Y-83365947D01*
X129374764Y-83376239D01*
X129328606Y-83548503D01*
X129328942Y-83562599D01*
X129336884Y-83566000D01*
X130938000Y-83566000D01*
X131006121Y-83586002D01*
X131052614Y-83639658D01*
X131064000Y-83692000D01*
X131064000Y-83948000D01*
X131043998Y-84016121D01*
X130990342Y-84062614D01*
X130938000Y-84074000D01*
X129342033Y-84074000D01*
X129328502Y-84077973D01*
X129327273Y-84086522D01*
X129374764Y-84263761D01*
X129378510Y-84274053D01*
X129470586Y-84471511D01*
X129476069Y-84481007D01*
X129601028Y-84659467D01*
X129608084Y-84667875D01*
X129762125Y-84821916D01*
X129770533Y-84828972D01*
X129948993Y-84953931D01*
X129958489Y-84959414D01*
X129993049Y-84975529D01*
X130046334Y-85022446D01*
X130065795Y-85090723D01*
X130045253Y-85158683D01*
X129993049Y-85203919D01*
X129958238Y-85220151D01*
X129958233Y-85220154D01*
X129953251Y-85222477D01*
X129880576Y-85273365D01*
X129770211Y-85350643D01*
X129770208Y-85350645D01*
X129765700Y-85353802D01*
X129603802Y-85515700D01*
X129472477Y-85703251D01*
X129470154Y-85708233D01*
X129470151Y-85708238D01*
X129378039Y-85905775D01*
X129375716Y-85910757D01*
X129316457Y-86131913D01*
X129296502Y-86360000D01*
X129316457Y-86588087D01*
X129317881Y-86593400D01*
X129317881Y-86593402D01*
X129371455Y-86793339D01*
X129375716Y-86809243D01*
X129378039Y-86814224D01*
X129378039Y-86814225D01*
X129470151Y-87011762D01*
X129470154Y-87011767D01*
X129472477Y-87016749D01*
X129603802Y-87204300D01*
X129765700Y-87366198D01*
X129770208Y-87369355D01*
X129770211Y-87369357D01*
X129848389Y-87424098D01*
X129953251Y-87497523D01*
X129958233Y-87499846D01*
X129958238Y-87499849D01*
X129992457Y-87515805D01*
X130045742Y-87562722D01*
X130065203Y-87630999D01*
X130044661Y-87698959D01*
X129992457Y-87744195D01*
X129958238Y-87760151D01*
X129958233Y-87760154D01*
X129953251Y-87762477D01*
X129880576Y-87813365D01*
X129770211Y-87890643D01*
X129770208Y-87890645D01*
X129765700Y-87893802D01*
X129603802Y-88055700D01*
X129472477Y-88243251D01*
X129470154Y-88248233D01*
X129470151Y-88248238D01*
X129378039Y-88445775D01*
X129375716Y-88450757D01*
X129316457Y-88671913D01*
X129296502Y-88900000D01*
X129316457Y-89128087D01*
X129375716Y-89349243D01*
X129378039Y-89354224D01*
X129378039Y-89354225D01*
X129470151Y-89551762D01*
X129470154Y-89551767D01*
X129472477Y-89556749D01*
X129603802Y-89744300D01*
X129765700Y-89906198D01*
X129770208Y-89909355D01*
X129770211Y-89909357D01*
X129848389Y-89964098D01*
X129953251Y-90037523D01*
X129958233Y-90039846D01*
X129958238Y-90039849D01*
X129992457Y-90055805D01*
X130045742Y-90102722D01*
X130065203Y-90170999D01*
X130044661Y-90238959D01*
X129992457Y-90284195D01*
X129958238Y-90300151D01*
X129958233Y-90300154D01*
X129953251Y-90302477D01*
X129848389Y-90375902D01*
X129770211Y-90430643D01*
X129770208Y-90430645D01*
X129765700Y-90433802D01*
X129603802Y-90595700D01*
X129472477Y-90783251D01*
X129470154Y-90788233D01*
X129470151Y-90788238D01*
X129378039Y-90985775D01*
X129375716Y-90990757D01*
X129316457Y-91211913D01*
X129296502Y-91440000D01*
X129316457Y-91668087D01*
X129375716Y-91889243D01*
X129378039Y-91894224D01*
X129378039Y-91894225D01*
X129470151Y-92091762D01*
X129470154Y-92091767D01*
X129472477Y-92096749D01*
X129603802Y-92284300D01*
X129765700Y-92446198D01*
X129770208Y-92449355D01*
X129770211Y-92449357D01*
X129848389Y-92504098D01*
X129953251Y-92577523D01*
X129958233Y-92579846D01*
X129958238Y-92579849D01*
X129992457Y-92595805D01*
X130045742Y-92642722D01*
X130065203Y-92710999D01*
X130044661Y-92778959D01*
X129992457Y-92824195D01*
X129958238Y-92840151D01*
X129958233Y-92840154D01*
X129953251Y-92842477D01*
X129848389Y-92915902D01*
X129770211Y-92970643D01*
X129770208Y-92970645D01*
X129765700Y-92973802D01*
X129603802Y-93135700D01*
X129600645Y-93140208D01*
X129600643Y-93140211D01*
X129566563Y-93188882D01*
X129472477Y-93323251D01*
X129470154Y-93328233D01*
X129470151Y-93328238D01*
X129441880Y-93388866D01*
X129375716Y-93530757D01*
X129374294Y-93536065D01*
X129374293Y-93536067D01*
X129353201Y-93614782D01*
X129316457Y-93751913D01*
X129296502Y-93980000D01*
X129316457Y-94208087D01*
X129317881Y-94213400D01*
X129317881Y-94213402D01*
X129353216Y-94345271D01*
X129375716Y-94429243D01*
X129378039Y-94434224D01*
X129378039Y-94434225D01*
X129470151Y-94631762D01*
X129470154Y-94631767D01*
X129472477Y-94636749D01*
X129603802Y-94824300D01*
X129765700Y-94986198D01*
X129770208Y-94989355D01*
X129770211Y-94989357D01*
X129848389Y-95044098D01*
X129953251Y-95117523D01*
X129958233Y-95119846D01*
X129958238Y-95119849D01*
X129992457Y-95135805D01*
X130045742Y-95182722D01*
X130065203Y-95250999D01*
X130044661Y-95318959D01*
X129992457Y-95364195D01*
X129958238Y-95380151D01*
X129958233Y-95380154D01*
X129953251Y-95382477D01*
X129848389Y-95455902D01*
X129770211Y-95510643D01*
X129770208Y-95510645D01*
X129765700Y-95513802D01*
X129603802Y-95675700D01*
X129472477Y-95863251D01*
X129470154Y-95868233D01*
X129470151Y-95868238D01*
X129378039Y-96065775D01*
X129375716Y-96070757D01*
X129316457Y-96291913D01*
X129296502Y-96520000D01*
X129316457Y-96748087D01*
X129317881Y-96753400D01*
X129317881Y-96753402D01*
X129373941Y-96962617D01*
X129375716Y-96969243D01*
X129378039Y-96974224D01*
X129378039Y-96974225D01*
X129470151Y-97171762D01*
X129470154Y-97171767D01*
X129472477Y-97176749D01*
X129475634Y-97181257D01*
X129594281Y-97350702D01*
X129603802Y-97364300D01*
X129765700Y-97526198D01*
X129770208Y-97529355D01*
X129770211Y-97529357D01*
X129801835Y-97551500D01*
X129953251Y-97657523D01*
X129958233Y-97659846D01*
X129958238Y-97659849D01*
X129992457Y-97675805D01*
X130045742Y-97722722D01*
X130065203Y-97790999D01*
X130044661Y-97858959D01*
X129992457Y-97904195D01*
X129958238Y-97920151D01*
X129958233Y-97920154D01*
X129953251Y-97922477D01*
X129903176Y-97957540D01*
X129770211Y-98050643D01*
X129770208Y-98050645D01*
X129765700Y-98053802D01*
X129603802Y-98215700D01*
X129472477Y-98403251D01*
X129470154Y-98408233D01*
X129470151Y-98408238D01*
X129381203Y-98598990D01*
X129375716Y-98610757D01*
X129374294Y-98616065D01*
X129374293Y-98616067D01*
X129335718Y-98760031D01*
X129316457Y-98831913D01*
X129296502Y-99060000D01*
X129316457Y-99288087D01*
X129317881Y-99293400D01*
X129317881Y-99293402D01*
X129373941Y-99502617D01*
X129375716Y-99509243D01*
X129378039Y-99514224D01*
X129378039Y-99514225D01*
X129470151Y-99711762D01*
X129470154Y-99711767D01*
X129472477Y-99716749D01*
X129475634Y-99721257D01*
X129594281Y-99890702D01*
X129603802Y-99904300D01*
X129765700Y-100066198D01*
X129770208Y-100069355D01*
X129770211Y-100069357D01*
X129830442Y-100111531D01*
X129953251Y-100197523D01*
X129958233Y-100199846D01*
X129958238Y-100199849D01*
X130155775Y-100291961D01*
X130160757Y-100294284D01*
X130166065Y-100295706D01*
X130166067Y-100295707D01*
X130376598Y-100352119D01*
X130376600Y-100352119D01*
X130381913Y-100353543D01*
X130481480Y-100362254D01*
X130550149Y-100368262D01*
X130550156Y-100368262D01*
X130552873Y-100368500D01*
X131067127Y-100368500D01*
X131069844Y-100368262D01*
X131069851Y-100368262D01*
X131138520Y-100362254D01*
X131238087Y-100353543D01*
X131243400Y-100352119D01*
X131243402Y-100352119D01*
X131453933Y-100295707D01*
X131453935Y-100295706D01*
X131459243Y-100294284D01*
X131464225Y-100291961D01*
X131661762Y-100199849D01*
X131661767Y-100199846D01*
X131666749Y-100197523D01*
X131789558Y-100111531D01*
X131849789Y-100069357D01*
X131849792Y-100069355D01*
X131854300Y-100066198D01*
X132016198Y-99904300D01*
X132025720Y-99890702D01*
X132144366Y-99721257D01*
X132147523Y-99716749D01*
X132149846Y-99711767D01*
X132149849Y-99711762D01*
X132241961Y-99514225D01*
X132241961Y-99514224D01*
X132244284Y-99509243D01*
X132246060Y-99502617D01*
X132302119Y-99293402D01*
X132302119Y-99293400D01*
X132303543Y-99288087D01*
X132323498Y-99060000D01*
X132303543Y-98831913D01*
X132284282Y-98760031D01*
X132245707Y-98616067D01*
X132245706Y-98616065D01*
X132244284Y-98610757D01*
X132238797Y-98598990D01*
X132149849Y-98408238D01*
X132149846Y-98408233D01*
X132147523Y-98403251D01*
X132016198Y-98215700D01*
X131854300Y-98053802D01*
X131849792Y-98050645D01*
X131849789Y-98050643D01*
X131716824Y-97957540D01*
X131666749Y-97922477D01*
X131661767Y-97920154D01*
X131661762Y-97920151D01*
X131627543Y-97904195D01*
X131574258Y-97857278D01*
X131554797Y-97789001D01*
X131575339Y-97721041D01*
X131627543Y-97675805D01*
X131661762Y-97659849D01*
X131661767Y-97659846D01*
X131666749Y-97657523D01*
X131818165Y-97551500D01*
X131849789Y-97529357D01*
X131849792Y-97529355D01*
X131854300Y-97526198D01*
X132016198Y-97364300D01*
X132025720Y-97350702D01*
X132144366Y-97181257D01*
X132147523Y-97176749D01*
X132149846Y-97171767D01*
X132149849Y-97171762D01*
X132241961Y-96974225D01*
X132241961Y-96974224D01*
X132244284Y-96969243D01*
X132246060Y-96962617D01*
X132302119Y-96753402D01*
X132302119Y-96753400D01*
X132303543Y-96748087D01*
X132323498Y-96520000D01*
X132303543Y-96291913D01*
X132244284Y-96070757D01*
X132241961Y-96065775D01*
X132149849Y-95868238D01*
X132149846Y-95868233D01*
X132147523Y-95863251D01*
X132016198Y-95675700D01*
X131854300Y-95513802D01*
X131849792Y-95510645D01*
X131849789Y-95510643D01*
X131771611Y-95455902D01*
X131666749Y-95382477D01*
X131661767Y-95380154D01*
X131661762Y-95380151D01*
X131627543Y-95364195D01*
X131574258Y-95317278D01*
X131554797Y-95249001D01*
X131575339Y-95181041D01*
X131627543Y-95135805D01*
X131661762Y-95119849D01*
X131661767Y-95119846D01*
X131666749Y-95117523D01*
X131771611Y-95044098D01*
X131849789Y-94989357D01*
X131849792Y-94989355D01*
X131854300Y-94986198D01*
X132016198Y-94824300D01*
X132147523Y-94636749D01*
X132149846Y-94631767D01*
X132149849Y-94631762D01*
X132241961Y-94434225D01*
X132241961Y-94434224D01*
X132244284Y-94429243D01*
X132266785Y-94345271D01*
X132302119Y-94213402D01*
X132302119Y-94213400D01*
X132303543Y-94208087D01*
X132323498Y-93980000D01*
X132303543Y-93751913D01*
X132266799Y-93614782D01*
X132245707Y-93536067D01*
X132245706Y-93536065D01*
X132244284Y-93530757D01*
X132178120Y-93388866D01*
X132149849Y-93328238D01*
X132149846Y-93328233D01*
X132147523Y-93323251D01*
X132053437Y-93188882D01*
X132019357Y-93140211D01*
X132019355Y-93140208D01*
X132016198Y-93135700D01*
X131854300Y-92973802D01*
X131849792Y-92970645D01*
X131849789Y-92970643D01*
X131771611Y-92915902D01*
X131666749Y-92842477D01*
X131661767Y-92840154D01*
X131661762Y-92840151D01*
X131627543Y-92824195D01*
X131574258Y-92777278D01*
X131554797Y-92709001D01*
X131575339Y-92641041D01*
X131627543Y-92595805D01*
X131661762Y-92579849D01*
X131661767Y-92579846D01*
X131666749Y-92577523D01*
X131771611Y-92504098D01*
X131849789Y-92449357D01*
X131849792Y-92449355D01*
X131854300Y-92446198D01*
X132016198Y-92284300D01*
X132147523Y-92096749D01*
X132149846Y-92091767D01*
X132149849Y-92091762D01*
X132241961Y-91894225D01*
X132241961Y-91894224D01*
X132244284Y-91889243D01*
X132303543Y-91668087D01*
X132323498Y-91440000D01*
X132303543Y-91211913D01*
X132244284Y-90990757D01*
X132241961Y-90985775D01*
X132149849Y-90788238D01*
X132149846Y-90788233D01*
X132147523Y-90783251D01*
X132016198Y-90595700D01*
X131854300Y-90433802D01*
X131849792Y-90430645D01*
X131849789Y-90430643D01*
X131771611Y-90375902D01*
X131666749Y-90302477D01*
X131661767Y-90300154D01*
X131661762Y-90300151D01*
X131627543Y-90284195D01*
X131574258Y-90237278D01*
X131554797Y-90169001D01*
X131575339Y-90101041D01*
X131627543Y-90055805D01*
X131661762Y-90039849D01*
X131661767Y-90039846D01*
X131666749Y-90037523D01*
X131771611Y-89964098D01*
X131849789Y-89909357D01*
X131849792Y-89909355D01*
X131854300Y-89906198D01*
X132016198Y-89744300D01*
X132147523Y-89556749D01*
X132149846Y-89551767D01*
X132149849Y-89551762D01*
X132241961Y-89354225D01*
X132241961Y-89354224D01*
X132244284Y-89349243D01*
X132303543Y-89128087D01*
X132323498Y-88900000D01*
X132303543Y-88671913D01*
X132244284Y-88450757D01*
X132241961Y-88445775D01*
X132149849Y-88248238D01*
X132149846Y-88248233D01*
X132147523Y-88243251D01*
X132016198Y-88055700D01*
X131854300Y-87893802D01*
X131849792Y-87890645D01*
X131849789Y-87890643D01*
X131739424Y-87813365D01*
X131666749Y-87762477D01*
X131661767Y-87760154D01*
X131661762Y-87760151D01*
X131627543Y-87744195D01*
X131574258Y-87697278D01*
X131554797Y-87629001D01*
X131575339Y-87561041D01*
X131627543Y-87515805D01*
X131661762Y-87499849D01*
X131661767Y-87499846D01*
X131666749Y-87497523D01*
X131771611Y-87424098D01*
X131849789Y-87369357D01*
X131849792Y-87369355D01*
X131854300Y-87366198D01*
X132016198Y-87204300D01*
X132147523Y-87016749D01*
X132149846Y-87011767D01*
X132149849Y-87011762D01*
X132241961Y-86814225D01*
X132241961Y-86814224D01*
X132244284Y-86809243D01*
X132248546Y-86793339D01*
X132302119Y-86593402D01*
X132302119Y-86593400D01*
X132303543Y-86588087D01*
X132323498Y-86360000D01*
X132303543Y-86131913D01*
X132244284Y-85910757D01*
X132241961Y-85905775D01*
X132149849Y-85708238D01*
X132149846Y-85708233D01*
X132147523Y-85703251D01*
X132016198Y-85515700D01*
X131854300Y-85353802D01*
X131849792Y-85350645D01*
X131849789Y-85350643D01*
X131739424Y-85273365D01*
X131666749Y-85222477D01*
X131661767Y-85220154D01*
X131661762Y-85220151D01*
X131626951Y-85203919D01*
X131573666Y-85157002D01*
X131554205Y-85088725D01*
X131574747Y-85020765D01*
X131626951Y-84975529D01*
X131661511Y-84959414D01*
X131671007Y-84953931D01*
X131849467Y-84828972D01*
X131857875Y-84821916D01*
X132011916Y-84667875D01*
X132018972Y-84659467D01*
X132143931Y-84481007D01*
X132149414Y-84471511D01*
X132241490Y-84274053D01*
X132245236Y-84263761D01*
X132301625Y-84053312D01*
X132303528Y-84042520D01*
X132309993Y-83968627D01*
X132335856Y-83902508D01*
X132393360Y-83860869D01*
X132464247Y-83856928D01*
X132524609Y-83890513D01*
X132689595Y-84055499D01*
X132723621Y-84117811D01*
X132726500Y-84144594D01*
X132726500Y-111545500D01*
X132706498Y-111613621D01*
X132652842Y-111660114D01*
X132600500Y-111671500D01*
X132461866Y-111671500D01*
X132399684Y-111678255D01*
X132263295Y-111729385D01*
X132146739Y-111816739D01*
X132059385Y-111933295D01*
X132008255Y-112069684D01*
X132001500Y-112131866D01*
X132001500Y-113928134D01*
X132008255Y-113990316D01*
X132059385Y-114126705D01*
X132146739Y-114243261D01*
X132263295Y-114330615D01*
X132399684Y-114381745D01*
X132461866Y-114388500D01*
X134258134Y-114388500D01*
X134320316Y-114381745D01*
X134456705Y-114330615D01*
X134463888Y-114325232D01*
X134463891Y-114325230D01*
X134476179Y-114316020D01*
X134542685Y-114291173D01*
X134612068Y-114306226D01*
X134640838Y-114327752D01*
X135005333Y-114692247D01*
X135012877Y-114700537D01*
X135016990Y-114707018D01*
X135022767Y-114712443D01*
X135066657Y-114753658D01*
X135069499Y-114756413D01*
X135089221Y-114776135D01*
X135092363Y-114778572D01*
X135092423Y-114778619D01*
X135101435Y-114786317D01*
X135114868Y-114798931D01*
X135133669Y-114816586D01*
X135140613Y-114820403D01*
X135140615Y-114820405D01*
X135149128Y-114825085D01*
X135199187Y-114875430D01*
X135214081Y-114944846D01*
X135189081Y-115011296D01*
X135132124Y-115053680D01*
X135088428Y-115061500D01*
X123824500Y-115061500D01*
X123756379Y-115041498D01*
X123709886Y-114987842D01*
X123698500Y-114935500D01*
X123698500Y-111892703D01*
X124890743Y-111892703D01*
X124891302Y-111896947D01*
X124891302Y-111896951D01*
X124893084Y-111910488D01*
X124928268Y-112177734D01*
X125004129Y-112455036D01*
X125116923Y-112719476D01*
X125264561Y-112966161D01*
X125444313Y-113190528D01*
X125652851Y-113388423D01*
X125886317Y-113556186D01*
X125890112Y-113558195D01*
X125890113Y-113558196D01*
X125911869Y-113569715D01*
X126140392Y-113690712D01*
X126410373Y-113789511D01*
X126691264Y-113850755D01*
X126719841Y-113853004D01*
X126914282Y-113868307D01*
X126914291Y-113868307D01*
X126916739Y-113868500D01*
X127072271Y-113868500D01*
X127074407Y-113868354D01*
X127074418Y-113868354D01*
X127282548Y-113854165D01*
X127282554Y-113854164D01*
X127286825Y-113853873D01*
X127291020Y-113853004D01*
X127291022Y-113853004D01*
X127427583Y-113824724D01*
X127568342Y-113795574D01*
X127839343Y-113699607D01*
X128094812Y-113567750D01*
X128098313Y-113565289D01*
X128098317Y-113565287D01*
X128279941Y-113437639D01*
X128330023Y-113402441D01*
X128420818Y-113318069D01*
X128537479Y-113209661D01*
X128537481Y-113209658D01*
X128540622Y-113206740D01*
X128722713Y-112984268D01*
X128872927Y-112739142D01*
X128988483Y-112475898D01*
X129067244Y-112199406D01*
X129107751Y-111914784D01*
X129107845Y-111896951D01*
X129109235Y-111631583D01*
X129109235Y-111631576D01*
X129109257Y-111627297D01*
X129071732Y-111342266D01*
X128995871Y-111064964D01*
X128883077Y-110800524D01*
X128735439Y-110553839D01*
X128555687Y-110329472D01*
X128347149Y-110131577D01*
X128113683Y-109963814D01*
X128091843Y-109952250D01*
X128045156Y-109927531D01*
X127859608Y-109829288D01*
X127589627Y-109730489D01*
X127308736Y-109669245D01*
X127277685Y-109666801D01*
X127085718Y-109651693D01*
X127085709Y-109651693D01*
X127083261Y-109651500D01*
X126927729Y-109651500D01*
X126925593Y-109651646D01*
X126925582Y-109651646D01*
X126717452Y-109665835D01*
X126717446Y-109665836D01*
X126713175Y-109666127D01*
X126708980Y-109666996D01*
X126708978Y-109666996D01*
X126572417Y-109695276D01*
X126431658Y-109724426D01*
X126160657Y-109820393D01*
X126156848Y-109822359D01*
X125978729Y-109914293D01*
X125905188Y-109952250D01*
X125901687Y-109954711D01*
X125901683Y-109954713D01*
X125849961Y-109991064D01*
X125669977Y-110117559D01*
X125459378Y-110313260D01*
X125277287Y-110535732D01*
X125127073Y-110780858D01*
X125011517Y-111044102D01*
X125010342Y-111048229D01*
X125010341Y-111048230D01*
X124988273Y-111125702D01*
X124932756Y-111320594D01*
X124892249Y-111605216D01*
X124892227Y-111609505D01*
X124892226Y-111609512D01*
X124890765Y-111888417D01*
X124890743Y-111892703D01*
X123698500Y-111892703D01*
X123698500Y-76332703D01*
X124890743Y-76332703D01*
X124928268Y-76617734D01*
X125004129Y-76895036D01*
X125116923Y-77159476D01*
X125264561Y-77406161D01*
X125444313Y-77630528D01*
X125652851Y-77828423D01*
X125886317Y-77996186D01*
X125890112Y-77998195D01*
X125890113Y-77998196D01*
X125911869Y-78009715D01*
X126140392Y-78130712D01*
X126410373Y-78229511D01*
X126691264Y-78290755D01*
X126719841Y-78293004D01*
X126914282Y-78308307D01*
X126914291Y-78308307D01*
X126916739Y-78308500D01*
X127072271Y-78308500D01*
X127074407Y-78308354D01*
X127074418Y-78308354D01*
X127282548Y-78294165D01*
X127282554Y-78294164D01*
X127286825Y-78293873D01*
X127291020Y-78293004D01*
X127291022Y-78293004D01*
X127427583Y-78264724D01*
X127568342Y-78235574D01*
X127839343Y-78139607D01*
X128094812Y-78007750D01*
X128098313Y-78005289D01*
X128098317Y-78005287D01*
X128212418Y-77925095D01*
X128330023Y-77842441D01*
X128540622Y-77646740D01*
X128722713Y-77424268D01*
X128872927Y-77179142D01*
X128988483Y-76915898D01*
X129067244Y-76639406D01*
X129107751Y-76354784D01*
X129107845Y-76336951D01*
X129107867Y-76332703D01*
X170610743Y-76332703D01*
X170648268Y-76617734D01*
X170724129Y-76895036D01*
X170836923Y-77159476D01*
X170984561Y-77406161D01*
X171164313Y-77630528D01*
X171372851Y-77828423D01*
X171606317Y-77996186D01*
X171610112Y-77998195D01*
X171610113Y-77998196D01*
X171631869Y-78009715D01*
X171860392Y-78130712D01*
X172130373Y-78229511D01*
X172411264Y-78290755D01*
X172439841Y-78293004D01*
X172634282Y-78308307D01*
X172634291Y-78308307D01*
X172636739Y-78308500D01*
X172792271Y-78308500D01*
X172794407Y-78308354D01*
X172794418Y-78308354D01*
X173002548Y-78294165D01*
X173002554Y-78294164D01*
X173006825Y-78293873D01*
X173011020Y-78293004D01*
X173011022Y-78293004D01*
X173147583Y-78264724D01*
X173288342Y-78235574D01*
X173559343Y-78139607D01*
X173814812Y-78007750D01*
X173818313Y-78005289D01*
X173818317Y-78005287D01*
X173932418Y-77925095D01*
X174050023Y-77842441D01*
X174260622Y-77646740D01*
X174442713Y-77424268D01*
X174592927Y-77179142D01*
X174708483Y-76915898D01*
X174787244Y-76639406D01*
X174827751Y-76354784D01*
X174827845Y-76336951D01*
X174829235Y-76071583D01*
X174829235Y-76071576D01*
X174829257Y-76067297D01*
X174791732Y-75782266D01*
X174715871Y-75504964D01*
X174603077Y-75240524D01*
X174455439Y-74993839D01*
X174275687Y-74769472D01*
X174067149Y-74571577D01*
X173833683Y-74403814D01*
X173811843Y-74392250D01*
X173788654Y-74379972D01*
X173579608Y-74269288D01*
X173309627Y-74170489D01*
X173028736Y-74109245D01*
X172997685Y-74106801D01*
X172805718Y-74091693D01*
X172805709Y-74091693D01*
X172803261Y-74091500D01*
X172647729Y-74091500D01*
X172645593Y-74091646D01*
X172645582Y-74091646D01*
X172437452Y-74105835D01*
X172437446Y-74105836D01*
X172433175Y-74106127D01*
X172428980Y-74106996D01*
X172428978Y-74106996D01*
X172292416Y-74135277D01*
X172151658Y-74164426D01*
X171880657Y-74260393D01*
X171625188Y-74392250D01*
X171621687Y-74394711D01*
X171621683Y-74394713D01*
X171611594Y-74401804D01*
X171389977Y-74557559D01*
X171179378Y-74753260D01*
X170997287Y-74975732D01*
X170847073Y-75220858D01*
X170731517Y-75484102D01*
X170652756Y-75760594D01*
X170612249Y-76045216D01*
X170612227Y-76049505D01*
X170612226Y-76049512D01*
X170610765Y-76328417D01*
X170610743Y-76332703D01*
X129107867Y-76332703D01*
X129109235Y-76071583D01*
X129109235Y-76071576D01*
X129109257Y-76067297D01*
X129071732Y-75782266D01*
X128995871Y-75504964D01*
X128883077Y-75240524D01*
X128735439Y-74993839D01*
X128555687Y-74769472D01*
X128347149Y-74571577D01*
X128113683Y-74403814D01*
X128091843Y-74392250D01*
X128068654Y-74379972D01*
X127859608Y-74269288D01*
X127589627Y-74170489D01*
X127308736Y-74109245D01*
X127277685Y-74106801D01*
X127085718Y-74091693D01*
X127085709Y-74091693D01*
X127083261Y-74091500D01*
X126927729Y-74091500D01*
X126925593Y-74091646D01*
X126925582Y-74091646D01*
X126717452Y-74105835D01*
X126717446Y-74105836D01*
X126713175Y-74106127D01*
X126708980Y-74106996D01*
X126708978Y-74106996D01*
X126572416Y-74135277D01*
X126431658Y-74164426D01*
X126160657Y-74260393D01*
X125905188Y-74392250D01*
X125901687Y-74394711D01*
X125901683Y-74394713D01*
X125891594Y-74401804D01*
X125669977Y-74557559D01*
X125459378Y-74753260D01*
X125277287Y-74975732D01*
X125127073Y-75220858D01*
X125011517Y-75484102D01*
X124932756Y-75760594D01*
X124892249Y-76045216D01*
X124892227Y-76049505D01*
X124892226Y-76049512D01*
X124890765Y-76328417D01*
X124890743Y-76332703D01*
X123698500Y-76332703D01*
X123698500Y-73024500D01*
X123718502Y-72956379D01*
X123772158Y-72909886D01*
X123824500Y-72898500D01*
X175895500Y-72898500D01*
X175963621Y-72918502D01*
G37*
%TD.AperFunction*%
%TD*%
M02*
